<svg xmlns="http://www.w3.org/2000/svg" width="16" height="16" viewBox="0 0 16 16" fill="none">
<g clip-path="url(#clip0_337_13524)">
<mask id="mask0_337_13524" style="mask-type:luminance" maskUnits="userSpaceOnUse" x="-53" y="0" width="69" height="16">
<path d="M16 0H-52.9231V15.7894H16V0Z" fill="white"/>
</mask>
<g mask="url(#mask0_337_13524)">
<path d="M14.7256 3.71368C15.3314 4.39051 15.6 5.23312 15.7923 6.08214C16.7806 10.4547 14.1526 14.6587 9.77357 15.5997C4.98772 16.6282 0.922178 13.2859 0.311716 9.09918C0.0412549 7.37765 0.351103 5.61503 1.19264 4.089C1.27018 3.94595 1.32095 3.77472 1.50064 3.71094L3.76064 3.74829L2.98987 5.37798C2.98987 5.43386 2.98987 5.48971 2.98987 5.54558C3.54648 7.16069 4.58403 8.48795 5.56864 9.84617C5.67449 10.4228 5.59603 11.0304 5.85295 11.5815C6.57079 12.3923 7.28833 13.2036 8.00556 14.0156C8.05849 14.0757 8.12218 14.114 8.18772 14.0247C8.51572 13.8243 8.61141 13.4563 8.79264 13.1565C9.20433 12.4788 9.65172 11.8193 9.97695 11.0914L10.0769 10.9329C10.4797 10.7762 10.7339 10.4155 11.0902 10.196C11.2093 10.1305 11.3065 10.0315 11.3699 9.91112C11.4333 9.79078 11.4597 9.65444 11.4462 9.51912C11.4253 8.83866 11.4388 8.15272 11.4379 7.47497C11.5994 7.31531 11.7514 7.14651 11.8936 6.9694C12.2406 6.48205 12.7871 6.14955 12.9911 5.5538C13.0271 5.55848 13.0637 5.55232 13.0963 5.53608C13.1286 5.51986 13.1554 5.49429 13.1733 5.46269C13.3173 5.24408 13.1625 5.06097 13.0997 4.86875C12.9794 4.49891 12.7489 4.16549 12.7253 3.76288L14.7256 3.71368Z" fill="#287ABE"/>
<path d="M3.76147 3.74805L1.50146 3.7107C1.79931 2.93549 2.38854 2.38072 2.99715 1.87059C4.04454 0.991531 5.24608 0.384839 6.60269 0.139795C8.96208 -0.280151 11.1082 0.23089 13.0076 1.70116C13.7153 2.24773 14.3575 2.86717 14.7273 3.7107L12.7233 3.75442L11.0836 3.73439V3.18144L12.2587 3.17507L12.2968 3.15411L12.2596 3.09217C12.0618 2.89823 11.8255 2.74786 11.5658 2.65075C11.3064 2.55363 11.0295 2.51192 10.7529 2.5283C9.13685 2.56656 7.51993 2.54378 5.90393 2.54014C5.33716 2.54014 4.86546 2.78245 4.411 3.08214C3.99192 3.10036 3.98454 3.45836 3.87623 3.73165L3.76147 3.74805Z" fill="#B8E1F2"/>
<path d="M2.98975 5.54313C2.98975 5.48725 2.98975 5.43137 2.98975 5.37553C3.93436 5.09494 4.80175 4.62854 5.69067 4.2186C5.97221 4.08836 6.36021 4.09928 6.51067 3.73854C7.0516 3.76131 7.60359 3.64743 8.13467 3.80959C8.13898 5.08491 8.14328 6.36328 8.14759 7.64466H8.0639C7.02605 7.20103 5.9959 6.74011 4.94913 6.32017C4.2996 6.06236 3.70482 5.6506 2.98975 5.54313Z" fill="#B6E0F2"/>
<path d="M2.98975 5.54297C3.7039 5.64955 4.29867 6.06038 4.9519 6.32275C5.99867 6.74269 7.02883 7.20361 8.06636 7.64725C7.98359 8.03623 7.59836 8.12915 7.3559 8.3578C6.80298 8.88066 6.14175 9.27875 5.61436 9.83352C5.5999 9.84005 5.58452 9.84377 5.56882 9.84445C4.58482 8.48623 3.54728 7.15989 2.98975 5.54297Z" fill="#90D4F0"/>
<path d="M11.4387 7.4707C11.4387 8.15209 11.4261 8.8371 11.447 9.51486C11.4606 9.65018 11.4341 9.78649 11.3707 9.90683C11.3074 10.0272 11.2101 10.1262 11.0911 10.1917C10.7347 10.4112 10.4806 10.772 10.0778 10.9286C9.64797 10.3821 9.38028 9.72984 8.99474 9.15593C8.73259 8.76606 8.62397 8.26323 8.17505 8.00815C8.17505 7.9219 8.17659 7.83569 8.17966 7.74944L8.35351 7.65833C8.43197 7.75492 8.54213 7.74215 8.64397 7.73304C9.57382 7.64803 10.5055 7.56058 11.4387 7.4707Z" fill="#4D8AC8"/>
<path d="M5.85297 11.5831C5.59604 11.0311 5.67081 10.4244 5.56958 9.84686C5.58558 9.84615 5.60096 9.84246 5.61512 9.83594C6.43512 9.87055 7.25481 9.89151 8.06927 10.0181C8.06927 10.6558 8.06774 11.2934 8.06466 11.9311C7.90035 11.9247 7.73666 11.9071 7.57481 11.8783C6.99912 11.789 6.44343 11.585 5.85297 11.5831Z" fill="#B6E0F2"/>
<path d="M8.06396 11.9288C8.06396 11.2911 8.0652 10.6534 8.06827 10.0158C8.25689 9.35443 8.09751 8.67489 8.17135 8.01172C8.6212 8.26676 8.73073 8.77052 8.99104 9.1595C9.3775 9.7343 9.64428 10.3829 10.0744 10.9322L9.97412 11.0907L8.14212 11.9333C8.11597 11.9344 8.08981 11.9329 8.06396 11.9288Z" fill="#58AFDD"/>
<path d="M11.0791 3.73633L12.7188 3.75636C12.7425 4.159 12.9729 4.49242 13.0933 4.86227C13.156 5.05537 13.3108 5.23756 13.1671 5.45617C13.1311 5.45331 13.0954 5.46027 13.0631 5.47633C13.0311 5.49239 13.004 5.51691 12.9846 5.54728C12.6431 5.61104 12.3471 5.79233 12.0382 5.93079C11.7296 6.06925 11.4554 6.30064 11.0899 6.2906C11.0899 5.44525 11.0886 4.6002 11.0856 3.75547L11.0791 3.73633Z" fill="#4D8AC8"/>
<path d="M11.0917 6.29215C11.4563 6.30218 11.7296 6.06987 12.04 5.93234C12.3508 5.79477 12.645 5.61258 12.9865 5.54883C12.7816 6.14547 12.236 6.47707 11.889 6.96443C11.7468 7.14154 11.5948 7.31034 11.4336 7.47C10.5013 7.55806 9.56896 7.64581 8.63696 7.73326C8.53481 7.74237 8.42465 7.75514 8.34619 7.65858C8.99019 7.36067 9.63881 7.07283 10.2757 6.76037C10.5579 6.62372 10.885 6.55904 11.0917 6.29215Z" fill="#266FA8"/>
<path d="M8.06386 11.9303C8.09063 11.9331 8.1177 11.9331 8.14478 11.9303C8.15924 12.6275 8.17371 13.3258 8.18755 14.0254C8.12201 14.1166 8.05925 14.0756 8.0054 14.0163C7.28694 13.2068 6.5694 12.3967 5.85278 11.5859C6.44232 11.5859 6.99801 11.7918 7.57371 11.8811C7.73555 11.9087 7.89955 11.9251 8.06386 11.9303Z" fill="#90D4F0"/>
<path d="M6.51433 3.74167C6.36018 4.10607 5.97218 4.09148 5.69433 4.22173C4.80541 4.63167 3.93802 5.09807 2.99341 5.37865L3.7651 3.74896L3.87802 3.73438L6.51433 3.74167Z" fill="#90D4F0"/>
<path d="M8.18681 14.0218C8.17296 13.3246 8.1585 12.6262 8.14404 11.9266L9.97604 11.084C9.65081 11.8128 9.20343 12.4714 8.79173 13.1491C8.61512 13.4524 8.51481 13.8205 8.18681 14.0218Z" fill="#266FA8"/>
<path d="M12.9873 5.55072C13.0067 5.52035 13.0338 5.49583 13.0658 5.47977C13.0981 5.4637 13.1338 5.45675 13.1698 5.45961C13.1519 5.49121 13.1248 5.51678 13.0925 5.533C13.0599 5.54924 13.0233 5.5554 12.9873 5.55072Z" fill="#266FA8"/>
<path d="M4.4082 3.0847C4.86359 2.78502 5.33467 2.53815 5.90113 2.54271C7.51805 2.54271 9.13497 2.56912 10.7501 2.53086C11.027 2.51435 11.3045 2.55608 11.5642 2.65336C11.8242 2.75064 12.0605 2.90131 12.2587 3.09566C12.2587 3.1236 12.2587 3.15153 12.2587 3.17944L11.0744 3.18584H4.98021C4.78359 3.18584 4.58482 3.19769 4.4082 3.0847Z" fill="#F4FAFD"/>
<path d="M4.40825 3.08398C4.58487 3.19697 4.78364 3.1842 4.98025 3.1842H11.0744V3.73715L11.0818 3.75718L8.1384 3.81275C7.60271 3.65152 7.05533 3.76448 6.5144 3.74171L3.87256 3.73534C3.98271 3.46023 3.98917 3.10223 4.40825 3.08398Z" fill="#E9F6FD"/>
<path d="M12.2588 3.17561C12.2588 3.14767 12.2588 3.11974 12.2588 3.0918L12.296 3.15374L12.2588 3.17561Z" fill="#E9F6FD"/>
<path d="M8.13843 3.81352L11.0874 3.75977C11.0874 4.60512 11.0889 5.4502 11.0917 6.29493C10.8849 6.56186 10.5587 6.62653 10.2794 6.76407C9.64151 7.07653 8.99381 7.36438 8.34981 7.66226L8.17597 7.75337L8.15135 7.65041L8.13843 3.81352Z" fill="#68C1EA"/>
</g>
</g>
<defs>
<clipPath id="clip0_337_13524">
<rect width="16" height="16" fill="white"/>
</clipPath>
</defs>
</svg>