<svg xmlns="http://www.w3.org/2000/svg" width="16" height="16" viewBox="0 0 16 16" fill="none">
<g clip-path="url(#clip0_337_13193)">
<path d="M8.125 10.875L3.84375 11.9062V4.09375L8.125 5.09375V10.875Z" fill="#E05243"/>
<path d="M8 10.9062L12.1562 11.9062V4.09375L8 5.09375V10.9062Z" fill="#8C3123"/>
<path d="M8 2V5.03125L9.8125 5.46875V2.90625L8 2ZM12.1562 4.09375V11.9062L12.9688 11.5V4.46875L12.1562 4.09375ZM8 6.5V9.53125L9.8125 9.28125V6.71875L8 6.5ZM9.8125 10.5312L8 10.9688V14L9.8125 13.0938V10.5312Z" fill="#E05243"/>
<path d="M8 14V10.9688L6.1875 10.5312V13.0938L8 14ZM3.84375 11.9062L3.84375 4.09375L3.03125 4.5L3.03125 11.5312L3.84375 11.9062ZM8 9.5V6.46875L6.1875 6.71875V9.28125L8 9.5ZM6.1875 5.46875L8 5.03125L8 2L6.1875 2.90625L6.1875 5.46875Z" fill="#8C3123"/>
<path d="M9.8125 5.46875L8 5.8125L6.1875 5.46875L8 5L9.8125 5.46875Z" fill="#5E1F18"/>
<path d="M9.8125 10.5312L8 10.1875L6.1875 10.5312L8 11.0312L9.8125 10.5312Z" fill="#F2B0A9"/>
</g>
<defs>
<clipPath id="clip0_337_13193">
<rect width="16" height="16" fill="white"/>
</clipPath>
</defs>
</svg>