<svg xmlns="http://www.w3.org/2000/svg" width="148" height="97" viewBox="0 0 148 97" fill="none">
<g clip-path="url(#clip0_966_12069)">
<rect width="148" height="97" rx="12" fill="#6FCFFF"/>
<path d="M135 66.5V106.5C135 107.826 134.473 109.098 133.536 110.036C132.598 110.973 131.326 111.5 130 111.5H20C18.6739 111.5 17.4021 110.973 16.4645 110.036C15.5268 109.098 15 107.826 15 106.5V66.5C15 65.1739 15.5268 63.9021 16.4645 62.9645C17.4021 62.0268 18.6739 61.5 20 61.5C21.3261 61.5 22.5979 62.0268 23.5355 62.9645C24.4732 63.9021 25 65.1739 25 66.5V101.5H125V66.5C125 65.1739 125.527 63.9021 126.464 62.9645C127.402 62.0268 128.674 61.5 130 61.5C131.326 61.5 132.598 62.0268 133.536 62.9645C134.473 63.9021 135 65.1739 135 66.5ZM71.4625 70.0375C71.9269 70.5024 72.4783 70.8712 73.0853 71.1228C73.6923 71.3744 74.3429 71.5039 75 71.5039C75.6571 71.5039 76.3077 71.3744 76.9147 71.1228C77.5217 70.8712 78.0731 70.5024 78.5375 70.0375L103.538 45.0375C104.002 44.573 104.371 44.0214 104.622 43.4145C104.873 42.8075 105.003 42.157 105.003 41.5C105.003 40.843 104.873 40.1925 104.622 39.5855C104.371 38.9786 104.002 38.427 103.538 37.9625C103.073 37.4979 102.521 37.1294 101.914 36.878C101.308 36.6266 100.657 36.4972 100 36.4972C99.343 36.4972 98.6925 36.6266 98.0855 36.878C97.4786 37.1294 96.927 37.4979 96.4625 37.9625L80 54.4313V-3.5C80 -4.82608 79.4732 -6.09785 78.5355 -7.03553C77.5979 -7.97322 76.3261 -8.5 75 -8.5C73.6739 -8.5 72.4021 -7.97322 71.4645 -7.03553C70.5268 -6.09785 70 -4.82608 70 -3.5V54.4313L53.5375 37.9625C52.5993 37.0243 51.3268 36.4972 50 36.4972C48.6732 36.4972 47.4007 37.0243 46.4625 37.9625C45.5243 38.9007 44.9972 40.1732 44.9972 41.5C44.9972 42.8268 45.5243 44.0993 46.4625 45.0375L71.4625 70.0375Z" fill="#3EB7F3"/>
<path d="M74.5 25.25C72.5716 25.25 70.6866 25.8218 69.0832 26.8932C67.4798 27.9645 66.2301 29.4873 65.4922 31.2688C64.7542 33.0504 64.5611 35.0108 64.9373 36.9021C65.3136 38.7934 66.2422 40.5307 67.6057 41.8943C68.9693 43.2579 70.7066 44.1865 72.5979 44.5627C74.4892 44.9389 76.4496 44.7458 78.2312 44.0078C80.0127 43.2699 81.5355 42.0202 82.6068 40.4168C83.6782 38.8134 84.25 36.9284 84.25 35C84.2473 32.415 83.2192 29.9366 81.3913 28.1087C79.5634 26.2808 77.085 25.2527 74.5 25.25ZM78.3016 35.6169L73.4266 38.9919C73.314 39.0697 73.1823 39.1152 73.0458 39.1236C72.9092 39.1319 72.7729 39.1028 72.6517 39.0392C72.5306 38.9757 72.4291 38.8802 72.3583 38.7631C72.2874 38.6461 72.25 38.5118 72.25 38.375V31.625C72.25 31.4882 72.2874 31.3539 72.3583 31.2369C72.4291 31.1198 72.5306 31.0243 72.6517 30.9608C72.7729 30.8972 72.9092 30.8681 73.0458 30.8764C73.1823 30.8848 73.314 30.9303 73.4266 31.0081L78.3016 34.3831C78.4013 34.4521 78.4829 34.5443 78.5392 34.6517C78.5956 34.7592 78.625 34.8787 78.625 35C78.625 35.1213 78.5956 35.2408 78.5392 35.3483C78.4829 35.4557 78.4013 35.5479 78.3016 35.6169Z" fill="white"/>
<path d="M30.2801 66.888H32.5201C32.8827 66.888 33.2347 66.8293 33.5761 66.712C33.9174 66.5947 34.2214 66.4027 34.4881 66.136C34.7547 65.8587 34.9681 65.5013 35.1281 65.064C35.2881 64.6267 35.3681 64.0933 35.3681 63.464C35.3681 62.888 35.3094 62.3707 35.1921 61.912C35.0854 61.4427 34.9041 61.0427 34.6481 60.712C34.3921 60.3813 34.0507 60.1307 33.6241 59.96C33.2081 59.7787 32.6907 59.688 32.0721 59.688H30.2801V66.888ZM27.7681 57.576H32.6961C33.4321 57.576 34.1147 57.6933 34.7441 57.928C35.3841 58.1627 35.9334 58.5147 36.3921 58.984C36.8614 59.4533 37.2241 60.04 37.4801 60.744C37.7467 61.448 37.8801 62.2747 37.8801 63.224C37.8801 64.056 37.7734 64.824 37.5601 65.528C37.3467 66.232 37.0214 66.84 36.5841 67.352C36.1574 67.864 35.6187 68.2693 34.9681 68.568C34.3281 68.856 33.5707 69 32.6961 69H27.7681V57.576ZM44.9554 63.976C44.8488 63.4 44.6568 62.9627 44.3794 62.664C44.1128 62.3653 43.7021 62.216 43.1474 62.216C42.7848 62.216 42.4808 62.28 42.2354 62.408C42.0008 62.5253 41.8088 62.6747 41.6594 62.856C41.5208 63.0373 41.4194 63.2293 41.3554 63.432C41.3021 63.6347 41.2701 63.816 41.2594 63.976H44.9554ZM41.2594 65.416C41.2914 66.152 41.4781 66.6853 41.8194 67.016C42.1608 67.3467 42.6514 67.512 43.2914 67.512C43.7501 67.512 44.1448 67.4 44.4754 67.176C44.8061 66.9413 45.0088 66.696 45.0834 66.44H47.0834C46.7634 67.432 46.2728 68.1413 45.6114 68.568C44.9501 68.9947 44.1501 69.208 43.2114 69.208C42.5608 69.208 41.9741 69.1067 41.4514 68.904C40.9288 68.6907 40.4861 68.392 40.1234 68.008C39.7608 67.624 39.4781 67.1653 39.2754 66.632C39.0834 66.0987 38.9874 65.512 38.9874 64.872C38.9874 64.2533 39.0888 63.6773 39.2914 63.144C39.4941 62.6107 39.7821 62.152 40.1554 61.768C40.5288 61.3733 40.9714 61.064 41.4834 60.84C42.0061 60.616 42.5821 60.504 43.2114 60.504C43.9154 60.504 44.5288 60.6427 45.0514 60.92C45.5741 61.1867 46.0008 61.5493 46.3314 62.008C46.6728 62.4667 46.9181 62.9893 47.0674 63.576C47.2168 64.1627 47.2701 64.776 47.2274 65.416H41.2594ZM50.3349 66.312C50.3349 66.5573 50.3829 66.7707 50.4789 66.952C50.5856 67.1227 50.7189 67.2667 50.8789 67.384C51.0389 67.4907 51.2203 67.5707 51.4229 67.624C51.6363 67.6773 51.8549 67.704 52.0789 67.704C52.2389 67.704 52.4043 67.688 52.5749 67.656C52.7563 67.6133 52.9163 67.5547 53.0549 67.48C53.2043 67.3947 53.3269 67.288 53.4229 67.16C53.5189 67.0213 53.5669 66.8507 53.5669 66.648C53.5669 66.3067 53.3376 66.0507 52.8789 65.88C52.4309 65.7093 51.8016 65.5387 50.9909 65.368C50.6603 65.2933 50.3349 65.208 50.0149 65.112C49.7056 65.0053 49.4283 64.872 49.1829 64.712C48.9376 64.5413 48.7403 64.3333 48.5909 64.088C48.4416 63.832 48.3669 63.5227 48.3669 63.16C48.3669 62.6267 48.4683 62.1893 48.6709 61.848C48.8843 61.5067 49.1616 61.24 49.5029 61.048C49.8443 60.8453 50.2283 60.7067 50.6549 60.632C51.0816 60.5467 51.5189 60.504 51.9669 60.504C52.4149 60.504 52.8469 60.5467 53.2629 60.632C53.6896 60.7173 54.0683 60.8613 54.3989 61.064C54.7296 61.2667 55.0016 61.5387 55.2149 61.88C55.4389 62.2107 55.5723 62.632 55.6149 63.144H53.4549C53.4229 62.7067 53.2576 62.4133 52.9589 62.264C52.6603 62.104 52.3083 62.024 51.9029 62.024C51.7749 62.024 51.6363 62.0347 51.4869 62.056C51.3376 62.0667 51.1989 62.0987 51.0709 62.152C50.9536 62.2053 50.8523 62.2853 50.7669 62.392C50.6816 62.488 50.6389 62.6213 50.6389 62.792C50.6389 62.9947 50.7136 63.16 50.8629 63.288C51.0123 63.416 51.2043 63.5227 51.4389 63.608C51.6843 63.6827 51.9616 63.752 52.2709 63.816C52.5803 63.88 52.8949 63.9493 53.2149 64.024C53.5456 64.0987 53.8656 64.1893 54.1749 64.296C54.4949 64.4027 54.7776 64.5467 55.0229 64.728C55.2683 64.8987 55.4656 65.1173 55.6149 65.384C55.7643 65.64 55.8389 65.96 55.8389 66.344C55.8389 66.888 55.7269 67.3467 55.5029 67.72C55.2896 68.0827 55.0069 68.376 54.6549 68.6C54.3029 68.824 53.8976 68.9787 53.4389 69.064C52.9909 69.16 52.5323 69.208 52.0629 69.208C51.5829 69.208 51.1136 69.16 50.6549 69.064C50.1963 68.968 49.7856 68.808 49.4229 68.584C49.0709 68.36 48.7776 68.0667 48.5429 67.704C48.3189 67.3307 48.1963 66.8667 48.1749 66.312H50.3349ZM60.0487 60.728H61.7127V62.248H60.0487V66.344C60.0487 66.728 60.1127 66.984 60.2407 67.112C60.3687 67.24 60.6247 67.304 61.0087 67.304C61.1367 67.304 61.2594 67.2987 61.3767 67.288C61.494 67.2773 61.606 67.2613 61.7127 67.24V69C61.5207 69.032 61.3074 69.0533 61.0727 69.064C60.838 69.0747 60.6087 69.08 60.3847 69.08C60.0327 69.08 59.6967 69.0533 59.3767 69C59.0674 68.9573 58.79 68.8667 58.5447 68.728C58.31 68.5893 58.1234 68.392 57.9847 68.136C57.846 67.88 57.7767 67.544 57.7767 67.128V62.248H56.4007V60.728H57.7767V58.248H60.0487V60.728ZM65.1297 59.448H62.8577V57.576H65.1297V59.448ZM62.8577 60.728H65.1297V69H62.8577V60.728ZM66.9187 60.728H69.0787V61.88H69.1267C69.4147 61.4 69.788 61.0533 70.2467 60.84C70.7054 60.616 71.1747 60.504 71.6547 60.504C72.2627 60.504 72.7587 60.5893 73.1427 60.76C73.5374 60.92 73.8467 61.1493 74.0707 61.448C74.2947 61.736 74.4494 62.0933 74.5347 62.52C74.6307 62.936 74.6787 63.4 74.6787 63.912V69H72.4067V64.328C72.4067 63.6453 72.3 63.1387 72.0867 62.808C71.8734 62.4667 71.4947 62.296 70.9507 62.296C70.332 62.296 69.884 62.4827 69.6067 62.856C69.3294 63.2187 69.1907 63.8213 69.1907 64.664V69H66.9187V60.728ZM76.3071 63.272C76.3391 62.7387 76.4724 62.296 76.7071 61.944C76.9417 61.592 77.2404 61.3093 77.6031 61.096C77.9657 60.8827 78.3711 60.7333 78.8191 60.648C79.2777 60.552 79.7364 60.504 80.1951 60.504C80.6111 60.504 81.0324 60.536 81.4591 60.6C81.8857 60.6533 82.2751 60.7653 82.6271 60.936C82.9791 61.1067 83.2671 61.3467 83.4911 61.656C83.7151 61.9547 83.8271 62.3547 83.8271 62.856V67.16C83.8271 67.5333 83.8484 67.8907 83.8911 68.232C83.9337 68.5733 84.0084 68.8293 84.1151 69H81.8111C81.7684 68.872 81.7311 68.744 81.6991 68.616C81.6777 68.4773 81.6617 68.3387 81.6511 68.2C81.2884 68.5733 80.8617 68.8347 80.3711 68.984C79.8804 69.1333 79.3791 69.208 78.8671 69.208C78.4724 69.208 78.1044 69.16 77.7631 69.064C77.4217 68.968 77.1231 68.8187 76.8671 68.616C76.6111 68.4133 76.4084 68.1573 76.2591 67.848C76.1204 67.5387 76.0511 67.1707 76.0511 66.744C76.0511 66.2747 76.1311 65.8907 76.2911 65.592C76.4617 65.2827 76.6751 65.0373 76.9311 64.856C77.1977 64.6747 77.4964 64.5413 77.8271 64.456C78.1684 64.36 78.5097 64.2853 78.8511 64.232C79.1924 64.1787 79.5284 64.136 79.8591 64.104C80.1897 64.072 80.4831 64.024 80.7391 63.96C80.9951 63.896 81.1977 63.8053 81.3471 63.688C81.4964 63.56 81.5657 63.3787 81.5551 63.144C81.5551 62.8987 81.5124 62.7067 81.4271 62.568C81.3524 62.4187 81.2457 62.3067 81.1071 62.232C80.9791 62.1467 80.8244 62.0933 80.6431 62.072C80.4724 62.04 80.2857 62.024 80.0831 62.024C79.6351 62.024 79.2831 62.12 79.0271 62.312C78.7711 62.504 78.6217 62.824 78.5791 63.272H76.3071ZM81.5551 64.952C81.4591 65.0373 81.3364 65.1067 81.1871 65.16C81.0484 65.2027 80.8937 65.24 80.7231 65.272C80.5631 65.304 80.3924 65.3307 80.2111 65.352C80.0297 65.3733 79.8484 65.4 79.6671 65.432C79.4964 65.464 79.3257 65.5067 79.1551 65.56C78.9951 65.6133 78.8511 65.688 78.7231 65.784C78.6057 65.8693 78.5097 65.9813 78.4351 66.12C78.3604 66.2587 78.3231 66.4347 78.3231 66.648C78.3231 66.8507 78.3604 67.0213 78.4351 67.16C78.5097 67.2987 78.6111 67.4107 78.7391 67.496C78.8671 67.5707 79.0164 67.624 79.1871 67.656C79.3577 67.688 79.5337 67.704 79.7151 67.704C80.1631 67.704 80.5097 67.6293 80.7551 67.48C81.0004 67.3307 81.1817 67.1547 81.2991 66.952C81.4164 66.7387 81.4857 66.5253 81.5071 66.312C81.5391 66.0987 81.5551 65.928 81.5551 65.8V64.952ZM88.4706 60.728H90.1346V62.248H88.4706V66.344C88.4706 66.728 88.5346 66.984 88.6626 67.112C88.7906 67.24 89.0466 67.304 89.4306 67.304C89.5586 67.304 89.6812 67.2987 89.7986 67.288C89.9159 67.2773 90.0279 67.2613 90.1346 67.24V69C89.9426 69.032 89.7292 69.0533 89.4946 69.064C89.2599 69.0747 89.0306 69.08 88.8066 69.08C88.4546 69.08 88.1186 69.0533 87.7986 69C87.4892 68.9573 87.2119 68.8667 86.9666 68.728C86.7319 68.5893 86.5452 68.392 86.4066 68.136C86.2679 67.88 86.1986 67.544 86.1986 67.128V62.248H84.8226V60.728H86.1986V58.248H88.4706V60.728ZM93.5516 59.448H91.2796V57.576H93.5516V59.448ZM91.2796 60.728H93.5516V69H91.2796V60.728ZM97.3566 64.872C97.3566 65.2027 97.3886 65.528 97.4526 65.848C97.5166 66.1573 97.6232 66.44 97.7726 66.696C97.9326 66.9413 98.1406 67.1387 98.3966 67.288C98.6526 67.4373 98.9726 67.512 99.3566 67.512C99.7406 67.512 100.061 67.4373 100.317 67.288C100.583 67.1387 100.791 66.9413 100.941 66.696C101.101 66.44 101.213 66.1573 101.277 65.848C101.341 65.528 101.373 65.2027 101.373 64.872C101.373 64.5413 101.341 64.216 101.277 63.896C101.213 63.576 101.101 63.2933 100.941 63.048C100.791 62.8027 100.583 62.6053 100.317 62.456C100.061 62.296 99.7406 62.216 99.3566 62.216C98.9726 62.216 98.6526 62.296 98.3966 62.456C98.1406 62.6053 97.9326 62.8027 97.7726 63.048C97.6232 63.2933 97.5166 63.576 97.4526 63.896C97.3886 64.216 97.3566 64.5413 97.3566 64.872ZM95.0846 64.872C95.0846 64.2107 95.1859 63.6133 95.3886 63.08C95.5912 62.536 95.8792 62.0773 96.2526 61.704C96.6259 61.32 97.0739 61.0267 97.5966 60.824C98.1192 60.6107 98.7059 60.504 99.3566 60.504C100.007 60.504 100.594 60.6107 101.117 60.824C101.65 61.0267 102.103 61.32 102.477 61.704C102.85 62.0773 103.138 62.536 103.341 63.08C103.543 63.6133 103.645 64.2107 103.645 64.872C103.645 65.5333 103.543 66.1307 103.341 66.664C103.138 67.1973 102.85 67.656 102.477 68.04C102.103 68.4133 101.65 68.7013 101.117 68.904C100.594 69.1067 100.007 69.208 99.3566 69.208C98.7059 69.208 98.1192 69.1067 97.5966 68.904C97.0739 68.7013 96.6259 68.4133 96.2526 68.04C95.8792 67.656 95.5912 67.1973 95.3886 66.664C95.1859 66.1307 95.0846 65.5333 95.0846 64.872ZM105.122 60.728H107.282V61.88H107.33C107.618 61.4 107.991 61.0533 108.45 60.84C108.908 60.616 109.378 60.504 109.858 60.504C110.466 60.504 110.962 60.5893 111.346 60.76C111.74 60.92 112.05 61.1493 112.274 61.448C112.498 61.736 112.652 62.0933 112.738 62.52C112.834 62.936 112.882 63.4 112.882 63.912V69H110.61V64.328C110.61 63.6453 110.503 63.1387 110.29 62.808C110.076 62.4667 109.698 62.296 109.154 62.296C108.535 62.296 108.087 62.4827 107.81 62.856C107.532 63.2187 107.394 63.8213 107.394 64.664V69H105.122V60.728ZM116.366 66.312C116.366 66.5573 116.414 66.7707 116.51 66.952C116.617 67.1227 116.75 67.2667 116.91 67.384C117.07 67.4907 117.252 67.5707 117.454 67.624C117.668 67.6773 117.886 67.704 118.11 67.704C118.27 67.704 118.436 67.688 118.606 67.656C118.788 67.6133 118.948 67.5547 119.086 67.48C119.236 67.3947 119.358 67.288 119.454 67.16C119.55 67.0213 119.598 66.8507 119.598 66.648C119.598 66.3067 119.369 66.0507 118.91 65.88C118.462 65.7093 117.833 65.5387 117.022 65.368C116.692 65.2933 116.366 65.208 116.046 65.112C115.737 65.0053 115.46 64.872 115.214 64.712C114.969 64.5413 114.772 64.3333 114.622 64.088C114.473 63.832 114.398 63.5227 114.398 63.16C114.398 62.6267 114.5 62.1893 114.702 61.848C114.916 61.5067 115.193 61.24 115.534 61.048C115.876 60.8453 116.26 60.7067 116.686 60.632C117.113 60.5467 117.55 60.504 117.998 60.504C118.446 60.504 118.878 60.5467 119.294 60.632C119.721 60.7173 120.1 60.8613 120.43 61.064C120.761 61.2667 121.033 61.5387 121.246 61.88C121.47 62.2107 121.604 62.632 121.646 63.144H119.486C119.454 62.7067 119.289 62.4133 118.99 62.264C118.692 62.104 118.34 62.024 117.934 62.024C117.806 62.024 117.668 62.0347 117.518 62.056C117.369 62.0667 117.23 62.0987 117.102 62.152C116.985 62.2053 116.884 62.2853 116.798 62.392C116.713 62.488 116.67 62.6213 116.67 62.792C116.67 62.9947 116.745 63.16 116.894 63.288C117.044 63.416 117.236 63.5227 117.47 63.608C117.716 63.6827 117.993 63.752 118.302 63.816C118.612 63.88 118.926 63.9493 119.246 64.024C119.577 64.0987 119.897 64.1893 120.206 64.296C120.526 64.4027 120.809 64.5467 121.054 64.728C121.3 64.8987 121.497 65.1173 121.646 65.384C121.796 65.64 121.87 65.96 121.87 66.344C121.87 66.888 121.758 67.3467 121.534 67.72C121.321 68.0827 121.038 68.376 120.686 68.6C120.334 68.824 119.929 68.9787 119.47 69.064C119.022 69.16 118.564 69.208 118.094 69.208C117.614 69.208 117.145 69.16 116.686 69.064C116.228 68.968 115.817 68.808 115.454 68.584C115.102 68.36 114.809 68.0667 114.574 67.704C114.35 67.3307 114.228 66.8667 114.206 66.312H116.366Z" fill="white"/>
</g>
<defs>
<clipPath id="clip0_966_12069">
<rect width="148" height="97" rx="12" fill="white"/>
</clipPath>
</defs>
</svg>