<svg xmlns="http://www.w3.org/2000/svg" width="92" height="94" viewBox="0 0 92 94" fill="none">
<rect x="0.5" width="80" height="80" rx="8" fill="#13AA52" fill-opacity="0.19"/>
<path d="M58.5 41.75H23.5C22.5717 41.75 21.6815 42.1187 21.0251 42.7751C20.3687 43.4315 20 44.3217 20 45.25V55.75C20 56.6783 20.3687 57.5685 21.0251 58.2249C21.6815 58.8812 22.5717 59.25 23.5 59.25H58.5C59.4283 59.25 60.3185 58.8812 60.9749 58.2249C61.6312 57.5685 62 56.6783 62 55.75V45.25C62 44.3217 61.6312 43.4315 60.9749 42.7751C60.3185 42.1187 59.4283 41.75 58.5 41.75ZM58.5 55.75H23.5V45.25H58.5V55.75ZM58.5 20.75H23.5C22.5717 20.75 21.6815 21.1187 21.0251 21.7751C20.3687 22.4315 20 23.3217 20 24.25V34.75C20 35.6783 20.3687 36.5685 21.0251 37.2249C21.6815 37.8813 22.5717 38.25 23.5 38.25H58.5C59.4283 38.25 60.3185 37.8813 60.9749 37.2249C61.6312 36.5685 62 35.6783 62 34.75V24.25C62 23.3217 61.6312 22.4315 60.9749 21.7751C60.3185 21.1187 59.4283 20.75 58.5 20.75ZM58.5 34.75H23.5V24.25H58.5V34.75ZM55 29.5C55 30.0192 54.846 30.5267 54.5576 30.9584C54.2692 31.39 53.8592 31.7265 53.3795 31.9252C52.8999 32.1239 52.3721 32.1758 51.8629 32.0746C51.3537 31.9733 50.886 31.7233 50.5188 31.3562C50.1517 30.989 49.9017 30.5213 49.8004 30.0121C49.6992 29.5029 49.7511 28.9751 49.9498 28.4955C50.1485 28.0158 50.4849 27.6058 50.9166 27.3174C51.3483 27.029 51.8558 26.875 52.375 26.875C53.0712 26.875 53.7389 27.1516 54.2312 27.6438C54.7234 28.1361 55 28.8038 55 29.5ZM55 50.5C55 51.0192 54.846 51.5267 54.5576 51.9584C54.2692 52.3901 53.8592 52.7265 53.3795 52.9252C52.8999 53.1239 52.3721 53.1758 51.8629 53.0746C51.3537 52.9733 50.886 52.7233 50.5188 52.3562C50.1517 51.989 49.9017 51.5213 49.8004 51.0121C49.6992 50.5029 49.7511 49.9751 49.9498 49.4955C50.1485 49.0158 50.4849 48.6058 50.9166 48.3174C51.3483 48.029 51.8558 47.875 52.375 47.875C53.0712 47.875 53.7389 48.1516 54.2312 48.6438C54.7234 49.1361 55 49.8038 55 50.5Z" fill="#13AA52"/>
<path d="M75.0908 64.8633C72.5197 64.8633 70.0063 65.6257 67.8684 67.0542C65.7306 68.4826 64.0643 70.513 63.0804 72.8884C62.0965 75.2638 61.839 77.8777 62.3406 80.3995C62.8422 82.9212 64.0804 85.2376 65.8984 87.0557C67.7165 88.8738 70.0329 90.1119 72.5547 90.6135C75.0764 91.1151 77.6903 90.8577 80.0657 89.8737C82.4411 88.8898 84.4715 87.2235 85.8999 85.0857C87.3284 82.9479 88.0908 80.4344 88.0908 77.8633C88.0872 74.4166 86.7164 71.1121 84.2792 68.6749C81.842 66.2377 78.5375 64.8669 75.0908 64.8633ZM80.7983 75.5708L73.7983 82.5708C73.7055 82.6638 73.5952 82.7375 73.4738 82.7878C73.3524 82.8382 73.2222 82.8641 73.0908 82.8641C72.9594 82.8641 72.8293 82.8382 72.7079 82.7878C72.5865 82.7375 72.4762 82.6638 72.3833 82.5708L69.3833 79.5708C69.1957 79.3831 69.0903 79.1286 69.0903 78.8633C69.0903 78.5979 69.1957 78.3434 69.3833 78.1558C69.571 77.9681 69.8255 77.8627 70.0908 77.8627C70.3562 77.8627 70.6107 77.9681 70.7983 78.1558L73.0908 80.4495L79.3833 74.1558C79.4762 74.0629 79.5865 73.9892 79.7079 73.9389C79.8293 73.8886 79.9594 73.8627 80.0908 73.8627C80.2222 73.8627 80.3523 73.8886 80.4737 73.9389C80.5951 73.9892 80.7054 74.0629 80.7983 74.1558C80.8912 74.2487 80.9649 74.359 81.0152 74.4804C81.0655 74.6018 81.0914 74.7319 81.0914 74.8633C81.0914 74.9947 81.0655 75.1248 81.0152 75.2462C80.9649 75.3676 80.8912 75.4779 80.7983 75.5708Z" fill="#13AA52"/>
</svg>