<svg xmlns="http://www.w3.org/2000/svg" width="91" height="94" viewBox="0 0 91 94" fill="none">
<rect width="80" height="80" rx="8" fill="#FF2605" fill-opacity="0.06"/>
<path d="M58 41.75H23C22.0717 41.75 21.1815 42.1187 20.5251 42.7751C19.8687 43.4315 19.5 44.3217 19.5 45.25V55.75C19.5 56.6783 19.8687 57.5685 20.5251 58.2249C21.1815 58.8812 22.0717 59.25 23 59.25H58C58.9283 59.25 59.8185 58.8812 60.4749 58.2249C61.1312 57.5685 61.5 56.6783 61.5 55.75V45.25C61.5 44.3217 61.1312 43.4315 60.4749 42.7751C59.8185 42.1187 58.9283 41.75 58 41.75ZM58 55.75H23V45.25H58V55.75ZM58 20.75H23C22.0717 20.75 21.1815 21.1187 20.5251 21.7751C19.8687 22.4315 19.5 23.3217 19.5 24.25V34.75C19.5 35.6783 19.8687 36.5685 20.5251 37.2249C21.1815 37.8813 22.0717 38.25 23 38.25H58C58.9283 38.25 59.8185 37.8813 60.4749 37.2249C61.1312 36.5685 61.5 35.6783 61.5 34.75V24.25C61.5 23.3217 61.1312 22.4315 60.4749 21.7751C59.8185 21.1187 58.9283 20.75 58 20.75ZM58 34.75H23V24.25H58V34.75ZM54.5 29.5C54.5 30.0192 54.346 30.5267 54.0576 30.9584C53.7692 31.39 53.3592 31.7265 52.8795 31.9252C52.3999 32.1239 51.8721 32.1758 51.3629 32.0746C50.8537 31.9733 50.386 31.7233 50.0188 31.3562C49.6517 30.989 49.4017 30.5213 49.3004 30.0121C49.1992 29.5029 49.2511 28.9751 49.4498 28.4955C49.6485 28.0158 49.9849 27.6058 50.4166 27.3174C50.8483 27.029 51.3558 26.875 51.875 26.875C52.5712 26.875 53.2389 27.1516 53.7312 27.6438C54.2234 28.1361 54.5 28.8038 54.5 29.5ZM54.5 50.5C54.5 51.0192 54.346 51.5267 54.0576 51.9584C53.7692 52.3901 53.3592 52.7265 52.8795 52.9252C52.3999 53.1239 51.8721 53.1758 51.3629 53.0746C50.8537 52.9733 50.386 52.7233 50.0188 52.3562C49.6517 51.989 49.4017 51.5213 49.3004 51.0121C49.1992 50.5029 49.2511 49.9751 49.4498 49.4955C49.6485 49.0158 49.9849 48.6058 50.4166 48.3174C50.8483 48.029 51.3558 47.875 51.875 47.875C52.5712 47.875 53.2389 48.1516 53.7312 48.6438C54.2234 49.1361 54.5 49.8038 54.5 50.5Z" fill="#F5222D"/>
<path d="M74.3369 64.4453C71.7658 64.4453 69.2523 65.2077 67.1145 66.6362C64.9767 68.0647 63.3104 70.095 62.3265 72.4704C61.3425 74.8459 61.0851 77.4597 61.5867 79.9815C62.0883 82.5032 63.3264 84.8196 65.1445 86.6377C66.9626 88.4558 69.279 89.6939 71.8007 90.1955C74.3225 90.6971 76.9364 90.4397 79.3118 89.4557C81.6872 88.4718 83.7176 86.8056 85.146 84.6677C86.5745 82.5299 87.3369 80.0165 87.3369 77.4453C87.3333 73.9986 85.9625 70.6941 83.5253 68.2569C81.0881 65.8198 77.7836 64.449 74.3369 64.4453ZM79.0444 80.7378C79.1373 80.8307 79.211 80.941 79.2613 81.0624C79.3116 81.1838 79.3375 81.3139 79.3375 81.4453C79.3375 81.5767 79.3116 81.7068 79.2613 81.8282C79.211 81.9496 79.1373 82.0599 79.0444 82.1528C78.9515 82.2457 78.8412 82.3194 78.7198 82.3697C78.5984 82.42 78.4683 82.4459 78.3369 82.4459C78.2055 82.4459 78.0754 82.42 77.954 82.3697C77.8326 82.3194 77.7223 82.2457 77.6294 82.1528L74.3369 78.8591L71.0444 82.1528C70.9515 82.2457 70.8412 82.3194 70.7198 82.3697C70.5984 82.42 70.4683 82.4459 70.3369 82.4459C70.2055 82.4459 70.0754 82.42 69.954 82.3697C69.8326 82.3194 69.7223 82.2457 69.6294 82.1528C69.5365 82.0599 69.4628 81.9496 69.4125 81.8282C69.3622 81.7068 69.3364 81.5767 69.3364 81.4453C69.3364 81.3139 69.3622 81.1838 69.4125 81.0624C69.4628 80.941 69.5365 80.8307 69.6294 80.7378L72.9232 77.4453L69.6294 74.1528C69.4418 73.9652 69.3364 73.7107 69.3364 73.4453C69.3364 73.1799 69.4418 72.9255 69.6294 72.7378C69.8171 72.5502 70.0716 72.4448 70.3369 72.4448C70.6023 72.4448 70.8568 72.5502 71.0444 72.7378L74.3369 76.0316L77.6294 72.7378C77.7223 72.6449 77.8326 72.5712 77.954 72.5209C78.0754 72.4706 78.2055 72.4448 78.3369 72.4448C78.4683 72.4448 78.5984 72.4706 78.7198 72.5209C78.8412 72.5712 78.9515 72.6449 79.0444 72.7378C79.1373 72.8307 79.211 72.941 79.2613 73.0624C79.3116 73.1838 79.3375 73.3139 79.3375 73.4453C79.3375 73.5767 79.3116 73.7068 79.2613 73.8282C79.211 73.9496 79.1373 74.0599 79.0444 74.1528L75.7507 77.4453L79.0444 80.7378Z" fill="#F5222D"/>
</svg>