<svg xmlns="http://www.w3.org/2000/svg" width="141" height="98" viewBox="0 0 141 98" fill="none">
<g clip-path="url(#clip0_3_8151)">
<rect y="0.818359" width="140.5" height="97" rx="12" fill="#2649FF"/>
<path d="M144.149 46.4847H104.634C103.452 37.8996 99.3742 30.0502 93.1469 24.3734C86.9197 18.6966 78.9599 15.5723 70.7245 15.5723C62.4892 15.5723 54.5293 18.6966 48.3021 24.3734C42.0749 30.0502 37.9969 37.8996 36.8147 46.4847H-2.69977C-3.998 46.4847 -5.24305 47.028 -6.16103 47.9949C-7.07901 48.9619 -7.59473 50.2734 -7.59473 51.641C-7.59473 53.0085 -7.07901 54.32 -6.16103 55.287C-5.24305 56.254 -3.998 56.7972 -2.69977 56.7972H36.8147C37.9969 65.3823 42.0749 73.2317 48.3021 78.9085C54.5293 84.5853 62.4892 87.7096 70.7245 87.7096C78.9599 87.7096 86.9197 84.5853 93.1469 78.9085C99.3742 73.2317 103.452 65.3823 104.634 56.7972H144.149C145.447 56.7972 146.692 56.254 147.61 55.287C148.528 54.32 149.044 53.0085 149.044 51.641C149.044 50.2734 148.528 48.9619 147.61 47.9949C146.692 47.028 145.447 46.4847 144.149 46.4847ZM70.7245 77.4222C65.8839 77.4222 61.1519 75.9102 57.1271 73.0773C53.1022 70.2444 49.9652 66.2179 48.1128 61.507C46.2604 56.7961 45.7757 51.6124 46.72 46.6113C47.6644 41.6102 49.9954 37.0164 53.4183 33.4109C56.8411 29.8053 61.2021 27.3499 65.9497 26.3551C70.6974 25.3603 75.6184 25.8709 80.0906 27.8222C84.5628 29.7735 88.3852 33.078 91.0746 37.3177C93.7639 41.5574 95.1993 46.5419 95.1993 51.641C95.1993 58.4786 92.6207 65.0361 88.0308 69.8711C83.4409 74.706 77.2156 77.4222 70.7245 77.4222Z" fill="white" fill-opacity="0.7" style="mix-blend-mode:soft-light"/>
<path d="M70.5 26.0684C68.5716 26.0684 66.6866 26.6402 65.0832 27.7115C63.4798 28.7829 62.2301 30.3056 61.4922 32.0872C60.7542 33.8688 60.5611 35.8292 60.9373 37.7205C61.3136 39.6118 62.2422 41.3491 63.6057 42.7127C64.9693 44.0762 66.7066 45.0048 68.5979 45.381C70.4892 45.7572 72.4496 45.5641 74.2312 44.8262C76.0127 44.0882 77.5355 42.8385 78.6068 41.2352C79.6782 39.6318 80.25 37.7467 80.25 35.8184C80.2473 33.2333 79.2192 30.755 77.3913 28.9271C75.5634 27.0992 73.085 26.0711 70.5 26.0684ZM74.3016 36.4352L69.4266 39.8102C69.314 39.8881 69.1823 39.9336 69.0458 39.942C68.9092 39.9503 68.7729 39.9211 68.6517 39.8576C68.5306 39.7941 68.4291 39.6986 68.3583 39.5815C68.2874 39.4644 68.25 39.3302 68.25 39.1934V32.4434C68.25 32.3065 68.2874 32.1723 68.3583 32.0552C68.4291 31.9381 68.5306 31.8427 68.6517 31.7791C68.7729 31.7156 68.9092 31.6864 69.0458 31.6948C69.1823 31.7031 69.314 31.7487 69.4266 31.8265L74.3016 35.2015C74.4013 35.2705 74.4829 35.3627 74.5392 35.4701C74.5956 35.5775 74.625 35.697 74.625 35.8184C74.625 35.9397 74.5956 36.0592 74.5392 36.1666C74.4829 36.2741 74.4013 36.3662 74.3016 36.4352Z" fill="white"/>
<path d="M25.792 66.2184C25.792 66.5917 25.7547 67.0024 25.68 67.4504C25.6053 67.8984 25.4347 68.3197 25.168 68.7144C24.9013 69.0984 24.5173 69.4237 24.016 69.6904C23.5147 69.9464 22.8373 70.0744 21.984 70.0744C21.504 70.0744 21.04 70.005 20.592 69.8664C20.144 69.7384 19.744 69.5357 19.392 69.2584C19.04 68.9704 18.7573 68.6077 18.544 68.1704C18.3307 67.7224 18.224 67.1837 18.224 66.5544V65.5624H20.496V66.0744C20.496 66.3517 20.5173 66.6077 20.56 66.8424C20.6027 67.077 20.6773 67.2797 20.784 67.4504C20.8907 67.6104 21.0347 67.7384 21.216 67.8344C21.408 67.9304 21.6533 67.9784 21.952 67.9784C22.2827 67.9784 22.5387 67.9197 22.72 67.8024C22.9013 67.685 23.0293 67.5357 23.104 67.3544C23.1893 67.1624 23.2373 66.9597 23.248 66.7464C23.2693 66.5224 23.28 66.309 23.28 66.1064V58.3944H25.792V66.2184ZM29.7706 65.6904C29.7706 66.021 29.8026 66.3464 29.8666 66.6664C29.9306 66.9757 30.0373 67.2584 30.1866 67.5144C30.3466 67.7597 30.5546 67.957 30.8106 68.1064C31.0666 68.2557 31.3866 68.3304 31.7706 68.3304C32.1546 68.3304 32.4746 68.2557 32.7306 68.1064C32.9973 67.957 33.2053 67.7597 33.3546 67.5144C33.5146 67.2584 33.6266 66.9757 33.6906 66.6664C33.7546 66.3464 33.7866 66.021 33.7866 65.6904C33.7866 65.3597 33.7546 65.0344 33.6906 64.7144C33.6266 64.3944 33.5146 64.1117 33.3546 63.8664C33.2053 63.621 32.9973 63.4237 32.7306 63.2744C32.4746 63.1144 32.1546 63.0344 31.7706 63.0344C31.3866 63.0344 31.0666 63.1144 30.8106 63.2744C30.5546 63.4237 30.3466 63.621 30.1866 63.8664C30.0373 64.1117 29.9306 64.3944 29.8666 64.7144C29.8026 65.0344 29.7706 65.3597 29.7706 65.6904ZM27.4986 65.6904C27.4986 65.029 27.6 64.4317 27.8026 63.8984C28.0053 63.3544 28.2933 62.8957 28.6666 62.5224C29.04 62.1384 29.488 61.845 30.0106 61.6424C30.5333 61.429 31.12 61.3224 31.7706 61.3224C32.4213 61.3224 33.008 61.429 33.5306 61.6424C34.064 61.845 34.5173 62.1384 34.8906 62.5224C35.264 62.8957 35.552 63.3544 35.7546 63.8984C35.9573 64.4317 36.0586 65.029 36.0586 65.6904C36.0586 66.3517 35.9573 66.949 35.7546 67.4824C35.552 68.0157 35.264 68.4744 34.8906 68.8584C34.5173 69.2317 34.064 69.5197 33.5306 69.7224C33.008 69.925 32.4213 70.0264 31.7706 70.0264C31.12 70.0264 30.5333 69.925 30.0106 69.7224C29.488 69.5197 29.04 69.2317 28.6666 68.8584C28.2933 68.4744 28.0053 68.0157 27.8026 67.4824C27.6 66.949 27.4986 66.3517 27.4986 65.6904ZM43.5999 65.6904C43.5999 65.3384 43.5625 65.0024 43.4879 64.6824C43.4132 64.3624 43.2959 64.0797 43.1359 63.8344C42.9759 63.589 42.7732 63.397 42.5279 63.2584C42.2932 63.109 42.0052 63.0344 41.6639 63.0344C41.3332 63.0344 41.0452 63.109 40.7999 63.2584C40.5545 63.397 40.3519 63.589 40.1919 63.8344C40.0319 64.0797 39.9145 64.3624 39.8399 64.6824C39.7652 65.0024 39.7279 65.3384 39.7279 65.6904C39.7279 66.0317 39.7652 66.3624 39.8399 66.6824C39.9145 67.0024 40.0319 67.285 40.1919 67.5304C40.3519 67.7757 40.5545 67.973 40.7999 68.1224C41.0452 68.261 41.3332 68.3304 41.6639 68.3304C42.0052 68.3304 42.2932 68.261 42.5279 68.1224C42.7732 67.973 42.9759 67.7757 43.1359 67.5304C43.2959 67.285 43.4132 67.0024 43.4879 66.6824C43.5625 66.3624 43.5999 66.0317 43.5999 65.6904ZM37.5359 58.3944H39.8079V62.5544H39.8399C40.1172 62.1277 40.4905 61.8184 40.9599 61.6264C41.4399 61.4237 41.9359 61.3224 42.4479 61.3224C42.8639 61.3224 43.2745 61.4077 43.6799 61.5784C44.0852 61.749 44.4479 62.0104 44.7679 62.3624C45.0985 62.7144 45.3652 63.1677 45.5679 63.7224C45.7705 64.2664 45.8719 64.917 45.8719 65.6744C45.8719 66.4317 45.7705 67.0877 45.5679 67.6424C45.3652 68.1864 45.0985 68.6344 44.7679 68.9864C44.4479 69.3384 44.0852 69.5997 43.6799 69.7704C43.2745 69.941 42.8639 70.0264 42.4479 70.0264C41.8399 70.0264 41.2959 69.9304 40.8159 69.7384C40.3359 69.5464 39.9732 69.221 39.7279 68.7624H39.6959V69.8184H37.5359V58.3944ZM49.0771 67.1304C49.0771 67.3757 49.1251 67.589 49.2211 67.7704C49.3278 67.941 49.4611 68.085 49.6211 68.2024C49.7811 68.309 49.9625 68.389 50.1651 68.4424C50.3785 68.4957 50.5971 68.5224 50.8211 68.5224C50.9811 68.5224 51.1465 68.5064 51.3171 68.4744C51.4985 68.4317 51.6585 68.373 51.7971 68.2984C51.9465 68.213 52.0691 68.1064 52.1651 67.9784C52.2611 67.8397 52.3091 67.669 52.3091 67.4664C52.3091 67.125 52.0798 66.869 51.6211 66.6984C51.1731 66.5277 50.5438 66.357 49.7331 66.1864C49.4025 66.1117 49.0771 66.0264 48.7571 65.9304C48.4478 65.8237 48.1705 65.6904 47.9251 65.5304C47.6798 65.3597 47.4825 65.1517 47.3331 64.9064C47.1838 64.6504 47.1091 64.341 47.1091 63.9784C47.1091 63.445 47.2105 63.0077 47.4131 62.6664C47.6265 62.325 47.9038 62.0584 48.2451 61.8664C48.5865 61.6637 48.9705 61.525 49.3971 61.4504C49.8238 61.365 50.2611 61.3224 50.7091 61.3224C51.1571 61.3224 51.5891 61.365 52.0051 61.4504C52.4318 61.5357 52.8105 61.6797 53.1411 61.8824C53.4718 62.085 53.7438 62.357 53.9571 62.6984C54.1811 63.029 54.3145 63.4504 54.3571 63.9624H52.1971C52.1651 63.525 51.9998 63.2317 51.7011 63.0824C51.4025 62.9224 51.0505 62.8424 50.6451 62.8424C50.5171 62.8424 50.3785 62.853 50.2291 62.8744C50.0798 62.885 49.9411 62.917 49.8131 62.9704C49.6958 63.0237 49.5945 63.1037 49.5091 63.2104C49.4238 63.3064 49.3811 63.4397 49.3811 63.6104C49.3811 63.813 49.4558 63.9784 49.6051 64.1064C49.7545 64.2344 49.9465 64.341 50.1811 64.4264C50.4265 64.501 50.7038 64.5704 51.0131 64.6344C51.3225 64.6984 51.6371 64.7677 51.9571 64.8424C52.2878 64.917 52.6078 65.0077 52.9171 65.1144C53.2371 65.221 53.5198 65.365 53.7651 65.5464C54.0105 65.717 54.2078 65.9357 54.3571 66.2024C54.5065 66.4584 54.5811 66.7784 54.5811 67.1624C54.5811 67.7064 54.4691 68.165 54.2451 68.5384C54.0318 68.901 53.7491 69.1944 53.3971 69.4184C53.0451 69.6424 52.6398 69.797 52.1811 69.8824C51.7331 69.9784 51.2745 70.0264 50.8051 70.0264C50.3251 70.0264 49.8558 69.9784 49.3971 69.8824C48.9385 69.7864 48.5278 69.6264 48.1651 69.4024C47.8131 69.1784 47.5198 68.885 47.2851 68.5224C47.0611 68.149 46.9385 67.685 46.9171 67.1304H49.0771ZM59.3349 58.1224H61.1589L56.6949 70.0744H54.8869L59.3349 58.1224ZM69.0695 60.5064H65.6455V58.3944H75.0055V60.5064H71.5815V69.8184H69.0695V60.5064ZM82.374 69.8184H80.214V68.6664H80.166C79.878 69.1464 79.5047 69.493 79.046 69.7064C78.5873 69.9197 78.118 70.0264 77.638 70.0264C77.03 70.0264 76.5287 69.9464 76.134 69.7864C75.75 69.6264 75.446 69.4024 75.222 69.1144C74.998 68.8157 74.838 68.4584 74.742 68.0424C74.6567 67.6157 74.614 67.1464 74.614 66.6344V61.5464H76.886V66.2184C76.886 66.901 76.9927 67.413 77.206 67.7544C77.4193 68.085 77.798 68.2504 78.342 68.2504C78.9607 68.2504 79.4087 68.069 79.686 67.7064C79.9633 67.333 80.102 66.725 80.102 65.8824V61.5464H82.374V69.8184ZM86.9784 61.5464H88.6424V63.0664H86.9784V67.1624C86.9784 67.5464 87.0424 67.8024 87.1704 67.9304C87.2984 68.0584 87.5544 68.1224 87.9384 68.1224C88.0664 68.1224 88.189 68.117 88.3064 68.1064C88.4237 68.0957 88.5357 68.0797 88.6424 68.0584V69.8184C88.4504 69.8504 88.237 69.8717 88.0024 69.8824C87.7677 69.893 87.5384 69.8984 87.3144 69.8984C86.9624 69.8984 86.6264 69.8717 86.3064 69.8184C85.997 69.7757 85.7197 69.685 85.4744 69.5464C85.2397 69.4077 85.053 69.2104 84.9144 68.9544C84.7757 68.6984 84.7064 68.3624 84.7064 67.9464V63.0664H83.3304V61.5464H84.7064V59.0664H86.9784V61.5464ZM91.7394 65.6904C91.7394 66.021 91.7714 66.3464 91.8354 66.6664C91.8994 66.9757 92.006 67.2584 92.1554 67.5144C92.3154 67.7597 92.5234 67.957 92.7794 68.1064C93.0354 68.2557 93.3554 68.3304 93.7394 68.3304C94.1234 68.3304 94.4434 68.2557 94.6994 68.1064C94.966 67.957 95.174 67.7597 95.3234 67.5144C95.4834 67.2584 95.5954 66.9757 95.6594 66.6664C95.7234 66.3464 95.7554 66.021 95.7554 65.6904C95.7554 65.3597 95.7234 65.0344 95.6594 64.7144C95.5954 64.3944 95.4834 64.1117 95.3234 63.8664C95.174 63.621 94.966 63.4237 94.6994 63.2744C94.4434 63.1144 94.1234 63.0344 93.7394 63.0344C93.3554 63.0344 93.0354 63.1144 92.7794 63.2744C92.5234 63.4237 92.3154 63.621 92.1554 63.8664C92.006 64.1117 91.8994 64.3944 91.8354 64.7144C91.7714 65.0344 91.7394 65.3597 91.7394 65.6904ZM89.4674 65.6904C89.4674 65.029 89.5687 64.4317 89.7714 63.8984C89.974 63.3544 90.262 62.8957 90.6354 62.5224C91.0087 62.1384 91.4567 61.845 91.9794 61.6424C92.502 61.429 93.0887 61.3224 93.7394 61.3224C94.39 61.3224 94.9767 61.429 95.4994 61.6424C96.0327 61.845 96.486 62.1384 96.8594 62.5224C97.2327 62.8957 97.5207 63.3544 97.7234 63.8984C97.926 64.4317 98.0274 65.029 98.0274 65.6904C98.0274 66.3517 97.926 66.949 97.7234 67.4824C97.5207 68.0157 97.2327 68.4744 96.8594 68.8584C96.486 69.2317 96.0327 69.5197 95.4994 69.7224C94.9767 69.925 94.39 70.0264 93.7394 70.0264C93.0887 70.0264 92.502 69.925 91.9794 69.7224C91.4567 69.5197 91.0087 69.2317 90.6354 68.8584C90.262 68.4744 89.974 68.0157 89.7714 67.4824C89.5687 66.949 89.4674 66.3517 89.4674 65.6904ZM99.5046 61.5464H101.665V63.0824H101.697C101.803 62.8264 101.947 62.5917 102.129 62.3784C102.31 62.1544 102.518 61.9677 102.753 61.8184C102.987 61.6584 103.238 61.5357 103.505 61.4504C103.771 61.365 104.049 61.3224 104.337 61.3224C104.486 61.3224 104.651 61.349 104.833 61.4024V63.5144C104.726 63.493 104.598 63.477 104.449 63.4664C104.299 63.445 104.155 63.4344 104.017 63.4344C103.601 63.4344 103.249 63.5037 102.961 63.6424C102.673 63.781 102.438 63.973 102.257 64.2184C102.086 64.453 101.963 64.7304 101.889 65.0504C101.814 65.3704 101.777 65.717 101.777 66.0904V69.8184H99.5046V61.5464ZM108.059 60.2664H105.787V58.3944H108.059V60.2664ZM105.787 61.5464H108.059V69.8184H105.787V61.5464ZM109.752 64.0904C109.784 63.557 109.918 63.1144 110.152 62.7624C110.387 62.4104 110.686 62.1277 111.048 61.9144C111.411 61.701 111.816 61.5517 112.264 61.4664C112.723 61.3704 113.182 61.3224 113.64 61.3224C114.056 61.3224 114.478 61.3544 114.904 61.4184C115.331 61.4717 115.72 61.5837 116.072 61.7544C116.424 61.925 116.712 62.165 116.936 62.4744C117.16 62.773 117.272 63.173 117.272 63.6744V67.9784C117.272 68.3517 117.294 68.709 117.336 69.0504C117.379 69.3917 117.454 69.6477 117.56 69.8184H115.256C115.214 69.6904 115.176 69.5624 115.144 69.4344C115.123 69.2957 115.107 69.157 115.096 69.0184C114.734 69.3917 114.307 69.653 113.816 69.8024C113.326 69.9517 112.824 70.0264 112.312 70.0264C111.918 70.0264 111.55 69.9784 111.208 69.8824C110.867 69.7864 110.568 69.637 110.312 69.4344C110.056 69.2317 109.854 68.9757 109.704 68.6664C109.566 68.357 109.496 67.989 109.496 67.5624C109.496 67.093 109.576 66.709 109.736 66.4104C109.907 66.101 110.12 65.8557 110.376 65.6744C110.643 65.493 110.942 65.3597 111.272 65.2744C111.614 65.1784 111.955 65.1037 112.296 65.0504C112.638 64.997 112.974 64.9544 113.304 64.9224C113.635 64.8904 113.928 64.8424 114.184 64.7784C114.44 64.7144 114.643 64.6237 114.792 64.5064C114.942 64.3784 115.011 64.197 115 63.9624C115 63.717 114.958 63.525 114.872 63.3864C114.798 63.237 114.691 63.125 114.552 63.0504C114.424 62.965 114.27 62.9117 114.088 62.8904C113.918 62.8584 113.731 62.8424 113.528 62.8424C113.08 62.8424 112.728 62.9384 112.472 63.1304C112.216 63.3224 112.067 63.6424 112.024 64.0904H109.752ZM115 65.7704C114.904 65.8557 114.782 65.925 114.632 65.9784C114.494 66.021 114.339 66.0584 114.168 66.0904C114.008 66.1224 113.838 66.149 113.656 66.1704C113.475 66.1917 113.294 66.2184 113.112 66.2504C112.942 66.2824 112.771 66.325 112.6 66.3784C112.44 66.4317 112.296 66.5064 112.168 66.6024C112.051 66.6877 111.955 66.7997 111.88 66.9384C111.806 67.077 111.768 67.253 111.768 67.4664C111.768 67.669 111.806 67.8397 111.88 67.9784C111.955 68.117 112.056 68.229 112.184 68.3144C112.312 68.389 112.462 68.4424 112.632 68.4744C112.803 68.5064 112.979 68.5224 113.16 68.5224C113.608 68.5224 113.955 68.4477 114.2 68.2984C114.446 68.149 114.627 67.973 114.744 67.7704C114.862 67.557 114.931 67.3437 114.952 67.1304C114.984 66.917 115 66.7464 115 66.6184V65.7704ZM119.1 58.3944H121.372V69.8184H119.1V58.3944Z" fill="white"/>
</g>
<defs>
<clipPath id="clip0_3_8151">
<rect y="0.818359" width="140.5" height="97" rx="12" fill="white"/>
</clipPath>
</defs>
</svg>