<svg xmlns="http://www.w3.org/2000/svg" width="24" height="24" viewBox="0 0 24 24" fill="none">
<g clip-path="url(#clip0_1_9745)">
<path d="M12 24C18.6274 24 24 18.6274 24 12C24 5.37258 18.6274 0 12 0C5.37258 0 0 5.37258 0 12C0 18.6274 5.37258 24 12 24Z" fill="#13AA52"/>
<path d="M15.2071 10.5338C14.4491 7.18852 12.6578 6.08859 12.4649 5.66836C12.2539 5.37188 12.0402 4.84453 12.0402 4.84453C12.0367 4.83562 12.031 4.81992 12.0245 4.80469C12.0027 5.10117 11.9914 5.21555 11.7111 5.51461C11.2771 5.85398 9.05002 7.72266 8.86885 11.5233C8.69987 15.068 11.4294 17.1802 11.7985 17.4495L11.8405 17.4792V17.4766C11.8428 17.4945 11.9577 18.3204 12.0383 19.1955H12.3275C12.3954 18.5769 12.4971 17.9625 12.6322 17.355L12.6556 17.3398C12.8208 17.2214 12.9782 17.0926 13.127 16.9542L13.1439 16.939C13.9285 16.2141 15.3392 14.5373 15.3254 11.8641C15.3225 11.4181 15.2829 10.9732 15.2071 10.5338ZM12.0076 15.4481C12.0076 15.4481 12.0076 10.4766 12.1717 10.4775C12.2996 10.4775 12.4653 16.8902 12.4653 16.8902C12.2375 16.8628 12.0076 15.8348 12.0076 15.4481Z" fill="white"/>
</g>
<defs>
<clipPath id="clip0_1_9745">
<rect width="24" height="24" fill="white"/>
</clipPath>
</defs>
</svg>