<svg width="56" height="15" viewBox="0 0 56 15" fill="none" xmlns="http://www.w3.org/2000/svg">
<path d="M7.074 14.126C5.91 14.126 4.848 13.856 3.888 13.316C2.928 12.764 2.166 12.002 1.602 11.03C1.05 10.046 0.774 8.942 0.774 7.718C0.774 6.494 1.05 5.396 1.602 4.424C2.166 3.44 2.928 2.678 3.888 2.138C4.848 1.586 5.91 1.31 7.074 1.31C8.25 1.31 9.318 1.586 10.278 2.138C11.238 2.678 11.994 3.434 12.546 4.406C13.098 5.378 13.374 6.482 13.374 7.718C13.374 8.954 13.098 10.058 12.546 11.03C11.994 12.002 11.238 12.764 10.278 13.316C9.318 13.856 8.25 14.126 7.074 14.126ZM7.074 12.704C7.95 12.704 8.736 12.5 9.432 12.092C10.14 11.684 10.692 11.102 11.088 10.346C11.496 9.59 11.7 8.714 11.7 7.718C11.7 6.71 11.496 5.834 11.088 5.09C10.692 4.334 10.146 3.752 9.45 3.344C8.754 2.936 7.962 2.732 7.074 2.732C6.186 2.732 5.394 2.936 4.698 3.344C4.002 3.752 3.45 4.334 3.042 5.09C2.646 5.834 2.448 6.71 2.448 7.718C2.448 8.714 2.646 9.59 3.042 10.346C3.45 11.102 4.002 11.684 4.698 12.092C5.406 12.5 6.198 12.704 7.074 12.704ZM17.9124 12.002H22.0524V14H15.3924V1.436H17.9124V12.002ZM23.0061 8.978C23.0061 7.97 23.2041 7.076 23.6001 6.296C24.0081 5.516 24.5541 4.916 25.2381 4.496C25.9341 4.076 26.7081 3.866 27.5601 3.866C28.3041 3.866 28.9521 4.016 29.5041 4.316C30.0681 4.616 30.5181 4.994 30.8541 5.45V4.028H33.3921V14H30.8541V12.542C30.5301 13.01 30.0801 13.4 29.5041 13.712C28.9401 14.012 28.2861 14.162 27.5421 14.162C26.7021 14.162 25.9341 13.946 25.2381 13.514C24.5541 13.082 24.0081 12.476 23.6001 11.696C23.2041 10.904 23.0061 9.998 23.0061 8.978ZM30.8541 9.014C30.8541 8.402 30.7341 7.88 30.4941 7.448C30.2541 7.004 29.9301 6.668 29.5221 6.44C29.1141 6.2 28.6761 6.08 28.2081 6.08C27.7401 6.08 27.3081 6.194 26.9121 6.422C26.5161 6.65 26.1921 6.986 25.9401 7.43C25.7001 7.862 25.5801 8.378 25.5801 8.978C25.5801 9.578 25.7001 10.106 25.9401 10.562C26.1921 11.006 26.5161 11.348 26.9121 11.588C27.3201 11.828 27.7521 11.948 28.2081 11.948C28.6761 11.948 29.1141 11.834 29.5221 11.606C29.9301 11.366 30.2541 11.03 30.4941 10.598C30.7341 10.154 30.8541 9.626 30.8541 9.014ZM41.7573 14L38.3733 9.752V14H35.8533V0.68H38.3733V8.258L41.7213 4.028H44.9973L40.6053 9.032L45.0333 14H41.7573ZM55.635 8.798C55.635 9.158 55.611 9.482 55.563 9.77H48.273C48.333 10.49 48.585 11.054 49.029 11.462C49.473 11.87 50.019 12.074 50.667 12.074C51.603 12.074 52.269 11.672 52.665 10.868H55.383C55.095 11.828 54.543 12.62 53.727 13.244C52.911 13.856 51.909 14.162 50.721 14.162C49.761 14.162 48.897 13.952 48.129 13.532C47.373 13.1 46.779 12.494 46.347 11.714C45.927 10.934 45.717 10.034 45.717 9.014C45.717 7.982 45.927 7.076 46.347 6.296C46.767 5.516 47.355 4.916 48.111 4.496C48.867 4.076 49.737 3.866 50.721 3.866C51.669 3.866 52.515 4.07 53.259 4.478C54.015 4.886 54.597 5.468 55.005 6.224C55.425 6.968 55.635 7.826 55.635 8.798ZM53.025 8.078C53.013 7.43 52.779 6.914 52.323 6.53C51.867 6.134 51.309 5.936 50.649 5.936C50.025 5.936 49.497 6.128 49.065 6.512C48.645 6.884 48.387 7.406 48.291 8.078H53.025Z" fill="#193AE6"/>
</svg>
