<svg xmlns="http://www.w3.org/2000/svg" width="148" height="98" viewBox="0 0 148 98" fill="none">
<g clip-path="url(#clip0_983_12494)">
<rect y="0.199951" width="148" height="97" rx="12" fill="#9747FF"/>
<path d="M78.7273 66.1091V99.6546C78.7273 100.643 78.3346 101.591 77.6356 102.29C76.9366 102.989 75.9885 103.382 75 103.382C74.0115 103.382 73.0634 102.989 72.3644 102.29C71.6654 101.591 71.2727 100.643 71.2727 99.6546V66.1091C71.2727 65.1206 71.6654 64.1725 72.3644 63.4735C73.0634 62.7745 74.0115 62.3818 75 62.3818C75.9885 62.3818 76.9366 62.7745 77.6356 63.4735C78.3346 64.1725 78.7273 65.1206 78.7273 66.1091ZM112.273 36.2909H83.9967L103.728 16.5643C104.427 15.8649 104.82 14.9164 104.82 13.9273C104.82 12.9382 104.427 11.9896 103.728 11.2902C103.029 10.5908 102.08 10.1979 101.091 10.1979C100.102 10.1979 99.1533 10.5908 98.4539 11.2902L78.7273 31.0215V2.74546C78.7273 1.75693 78.3346 0.80888 77.6356 0.109881C76.9366 -0.589118 75.9885 -0.981812 75 -0.981812C74.0115 -0.981812 73.0634 -0.589118 72.3644 0.109881C71.6654 0.80888 71.2727 1.75693 71.2727 2.74546V31.0215L51.5461 11.2902C50.8468 10.5908 49.8982 10.1979 48.9091 10.1979C47.92 10.1979 46.9714 10.5908 46.272 11.2902C45.5727 11.9896 45.1797 12.9382 45.1797 13.9273C45.1797 14.9164 45.5727 15.8649 46.272 16.5643L66.0033 36.2909H37.7273C36.7387 36.2909 35.7907 36.6836 35.0917 37.3826C34.3927 38.0816 34 39.0297 34 40.0182C34 41.0067 34.3927 41.9548 35.0917 42.6538C35.7907 43.3528 36.7387 43.7455 37.7273 43.7455H66.0033L46.272 63.4721C45.5727 64.1714 45.1797 65.12 45.1797 66.1091C45.1797 67.0982 45.5727 68.0468 46.272 68.7461C46.9714 69.4455 47.92 69.8384 48.9091 69.8384C49.8982 69.8384 50.8468 69.4455 51.5461 68.7461L75 45.2876L98.4539 68.7461C98.8002 69.0924 99.2113 69.3671 99.6637 69.5546C100.116 69.742 100.601 69.8384 101.091 69.8384C101.581 69.8384 102.066 69.742 102.518 69.5546C102.971 69.3671 103.382 69.0924 103.728 68.7461C104.074 68.3998 104.349 67.9887 104.536 67.5363C104.724 67.0838 104.82 66.5988 104.82 66.1091C104.82 65.6194 104.724 65.1344 104.536 64.6819C104.349 64.2295 104.074 63.8184 103.728 63.4721L83.9967 43.7455H112.273C113.261 43.7455 114.209 43.3528 114.908 42.6538C115.607 41.9548 116 41.0067 116 40.0182C116 39.0297 115.607 38.0816 114.908 37.3826C114.209 36.6836 113.261 36.2909 112.273 36.2909Z" fill="#A75FFF"/>
<path d="M74.5 25.45C72.5716 25.45 70.6866 26.0218 69.0832 27.0931C67.4798 28.1645 66.2301 29.6872 65.4922 31.4688C64.7542 33.2504 64.5611 35.2108 64.9373 37.1021C65.3136 38.9934 66.2422 40.7307 67.6057 42.0942C68.9693 43.4578 70.7066 44.3864 72.5979 44.7626C74.4892 45.1388 76.4496 44.9457 78.2312 44.2078C80.0127 43.4698 81.5355 42.2201 82.6068 40.6168C83.6782 39.0134 84.25 37.1283 84.25 35.2C84.2473 32.6149 83.2192 30.1366 81.3913 28.3087C79.5634 26.4808 77.085 25.4527 74.5 25.45ZM78.3016 35.8168L73.4266 39.1918C73.314 39.2696 73.1823 39.3152 73.0458 39.3235C72.9092 39.3319 72.7729 39.3027 72.6517 39.2392C72.5306 39.1756 72.4291 39.0802 72.3583 38.9631C72.2874 38.846 72.25 38.7118 72.25 38.575V31.825C72.25 31.6881 72.2874 31.5539 72.3583 31.4368C72.4291 31.3197 72.5306 31.2243 72.6517 31.1607C72.7729 31.0972 72.9092 31.068 73.0458 31.0764C73.1823 31.0847 73.314 31.1303 73.4266 31.2081L78.3016 34.5831C78.4013 34.6521 78.4829 34.7442 78.5392 34.8517C78.5956 34.9591 78.625 35.0786 78.625 35.2C78.625 35.3213 78.5956 35.4408 78.5392 35.5482C78.4829 35.6557 78.4013 35.7478 78.3016 35.8168Z" fill="white"/>
<path d="M46.0348 65.408C46.0348 65.792 46.1041 66.1173 46.2428 66.384C46.3814 66.6506 46.5628 66.8693 46.7868 67.04C47.0214 67.2 47.2934 67.3226 47.6028 67.408C47.9121 67.4826 48.2321 67.52 48.5628 67.52C48.7868 67.52 49.0268 67.504 49.2828 67.472C49.5388 67.4293 49.7788 67.3546 50.0028 67.248C50.2268 67.1413 50.4134 66.9973 50.5628 66.816C50.7121 66.624 50.7868 66.384 50.7868 66.096C50.7868 65.7866 50.6854 65.536 50.4828 65.344C50.2908 65.152 50.0348 64.992 49.7148 64.864C49.3948 64.736 49.0321 64.624 48.6268 64.528C48.2214 64.432 47.8108 64.3253 47.3948 64.208C46.9681 64.1013 46.5521 63.9733 46.1468 63.824C45.7414 63.664 45.3788 63.4613 45.0588 63.216C44.7388 62.9706 44.4774 62.6666 44.2747 62.304C44.0828 61.9306 43.9868 61.4826 43.9868 60.96C43.9868 60.3733 44.1094 59.8666 44.3548 59.44C44.6108 59.0026 44.9414 58.64 45.3468 58.352C45.7521 58.064 46.2108 57.8506 46.7228 57.712C47.2348 57.5733 47.7468 57.504 48.2588 57.504C48.8561 57.504 49.4268 57.5733 49.9708 57.712C50.5254 57.84 51.0161 58.0533 51.4427 58.352C51.8694 58.6506 52.2054 59.0346 52.4508 59.504C52.7068 59.9626 52.8348 60.5226 52.8348 61.184H50.4028C50.3814 60.8426 50.3068 60.56 50.1788 60.336C50.0614 60.112 49.9014 59.936 49.6988 59.808C49.4961 59.68 49.2614 59.5893 48.9948 59.536C48.7388 59.4826 48.4561 59.456 48.1468 59.456C47.9441 59.456 47.7414 59.4773 47.5388 59.52C47.3361 59.5626 47.1494 59.6373 46.9788 59.744C46.8188 59.8506 46.6854 59.984 46.5788 60.144C46.4721 60.304 46.4188 60.5066 46.4188 60.752C46.4188 60.976 46.4614 61.1573 46.5468 61.296C46.6321 61.4346 46.7974 61.5626 47.0428 61.68C47.2988 61.7973 47.6454 61.9146 48.0828 62.032C48.5308 62.1493 49.1121 62.2986 49.8268 62.48C50.0401 62.5226 50.3334 62.6026 50.7068 62.72C51.0908 62.8266 51.4694 63.0026 51.8428 63.248C52.2161 63.4933 52.5361 63.824 52.8028 64.24C53.0801 64.6453 53.2188 65.168 53.2188 65.808C53.2188 66.3306 53.1174 66.816 52.9148 67.264C52.7121 67.712 52.4081 68.1013 52.0028 68.432C51.6081 68.752 51.1121 69.0026 50.5148 69.184C49.9281 69.3653 49.2454 69.456 48.4668 69.456C47.8374 69.456 47.2241 69.376 46.6268 69.216C46.0401 69.0666 45.5174 68.8266 45.0588 68.496C44.6108 68.1653 44.2534 67.744 43.9868 67.232C43.7201 66.72 43.5921 66.112 43.6028 65.408H46.0348ZM56.4894 65.072C56.4894 65.4026 56.5214 65.728 56.5854 66.048C56.6494 66.3573 56.756 66.64 56.9054 66.896C57.0654 67.1413 57.2734 67.3386 57.5294 67.488C57.7854 67.6373 58.1054 67.712 58.4894 67.712C58.8734 67.712 59.1934 67.6373 59.4494 67.488C59.716 67.3386 59.924 67.1413 60.0734 66.896C60.2334 66.64 60.3454 66.3573 60.4094 66.048C60.4734 65.728 60.5054 65.4026 60.5054 65.072C60.5054 64.7413 60.4734 64.416 60.4094 64.096C60.3454 63.776 60.2334 63.4933 60.0734 63.248C59.924 63.0026 59.716 62.8053 59.4494 62.656C59.1934 62.496 58.8734 62.416 58.4894 62.416C58.1054 62.416 57.7854 62.496 57.5294 62.656C57.2734 62.8053 57.0654 63.0026 56.9054 63.248C56.756 63.4933 56.6494 63.776 56.5854 64.096C56.5214 64.416 56.4894 64.7413 56.4894 65.072ZM54.2174 65.072C54.2174 64.4106 54.3187 63.8133 54.5214 63.28C54.724 62.736 55.012 62.2773 55.3854 61.904C55.7587 61.52 56.2067 61.2266 56.7294 61.024C57.252 60.8106 57.8387 60.704 58.4894 60.704C59.14 60.704 59.7267 60.8106 60.2494 61.024C60.7827 61.2266 61.236 61.52 61.6094 61.904C61.9827 62.2773 62.2707 62.736 62.4734 63.28C62.676 63.8133 62.7774 64.4106 62.7774 65.072C62.7774 65.7333 62.676 66.3306 62.4734 66.864C62.2707 67.3973 61.9827 67.856 61.6094 68.24C61.236 68.6133 60.7827 68.9013 60.2494 69.104C59.7267 69.3066 59.14 69.408 58.4894 69.408C57.8387 69.408 57.252 69.3066 56.7294 69.104C56.2067 68.9013 55.7587 68.6133 55.3854 68.24C55.012 67.856 54.724 67.3973 54.5214 66.864C54.3187 66.3306 54.2174 65.7333 54.2174 65.072ZM72.0146 69.2H69.8546V68.048H69.8066C69.5186 68.528 69.1453 68.8746 68.6866 69.088C68.228 69.3013 67.7586 69.408 67.2786 69.408C66.6706 69.408 66.1693 69.328 65.7746 69.168C65.3906 69.008 65.0866 68.784 64.8626 68.496C64.6386 68.1973 64.4786 67.84 64.3826 67.424C64.2973 66.9973 64.2546 66.528 64.2546 66.016V60.928H66.5266V65.6C66.5266 66.2826 66.6333 66.7946 66.8466 67.136C67.06 67.4666 67.4386 67.632 67.9826 67.632C68.6013 67.632 69.0493 67.4506 69.3266 67.088C69.604 66.7146 69.7426 66.1066 69.7426 65.264V60.928H72.0146V69.2ZM73.739 60.928H75.899V62.464H75.931C76.0377 62.208 76.1817 61.9733 76.363 61.76C76.5443 61.536 76.7523 61.3493 76.987 61.2C77.2217 61.04 77.4723 60.9173 77.739 60.832C78.0057 60.7466 78.283 60.704 78.571 60.704C78.7203 60.704 78.8857 60.7306 79.067 60.784V62.896C78.9603 62.8746 78.8323 62.8586 78.683 62.848C78.5337 62.8266 78.3897 62.816 78.251 62.816C77.835 62.816 77.483 62.8853 77.195 63.024C76.907 63.1626 76.6723 63.3546 76.491 63.6C76.3203 63.8346 76.1977 64.112 76.123 64.432C76.0483 64.752 76.011 65.0986 76.011 65.472V69.2H73.739V60.928ZM85.3085 63.84C85.1592 62.8906 84.5992 62.416 83.6285 62.416C83.2658 62.416 82.9618 62.5013 82.7165 62.672C82.4712 62.832 82.2685 63.0453 82.1085 63.312C81.9592 63.568 81.8525 63.856 81.7885 64.176C81.7245 64.4853 81.6925 64.7946 81.6925 65.104C81.6925 65.4026 81.7245 65.7066 81.7885 66.016C81.8525 66.3253 81.9538 66.608 82.0925 66.864C82.2418 67.1093 82.4392 67.312 82.6845 67.472C82.9298 67.632 83.2285 67.712 83.5805 67.712C84.1245 67.712 84.5405 67.5626 84.8285 67.264C85.1272 66.9546 85.3138 66.544 85.3885 66.032H87.5805C87.4312 67.1306 87.0045 67.968 86.3005 68.544C85.5965 69.12 84.6952 69.408 83.5965 69.408C82.9778 69.408 82.4072 69.3066 81.8845 69.104C81.3725 68.8906 80.9352 68.5973 80.5725 68.224C80.2098 67.8506 79.9272 67.408 79.7245 66.896C79.5218 66.3733 79.4205 65.8026 79.4205 65.184C79.4205 64.544 79.5112 63.952 79.6925 63.408C79.8845 62.8533 80.1618 62.3786 80.5245 61.984C80.8872 61.5786 81.3298 61.264 81.8525 61.04C82.3752 60.816 82.9725 60.704 83.6445 60.704C84.1352 60.704 84.6045 60.768 85.0525 60.896C85.5112 61.024 85.9165 61.2213 86.2685 61.488C86.6312 61.744 86.9245 62.0693 87.1485 62.464C87.3725 62.848 87.5005 63.3066 87.5325 63.84H85.3085ZM94.432 64.176C94.3253 63.6 94.1333 63.1626 93.856 62.864C93.5893 62.5653 93.1787 62.416 92.624 62.416C92.2613 62.416 91.9573 62.48 91.712 62.608C91.4773 62.7253 91.2853 62.8746 91.136 63.056C90.9973 63.2373 90.896 63.4293 90.832 63.632C90.7787 63.8346 90.7467 64.016 90.736 64.176H94.432ZM90.736 65.616C90.768 66.352 90.9547 66.8853 91.296 67.216C91.6373 67.5466 92.128 67.712 92.768 67.712C93.2267 67.712 93.6213 67.6 93.952 67.376C94.2827 67.1413 94.4853 66.896 94.56 66.64H96.56C96.24 67.632 95.7493 68.3413 95.088 68.768C94.4267 69.1946 93.6267 69.408 92.688 69.408C92.0373 69.408 91.4507 69.3066 90.928 69.104C90.4053 68.8906 89.9627 68.592 89.6 68.208C89.2373 67.824 88.9547 67.3653 88.752 66.832C88.56 66.2986 88.464 65.712 88.464 65.072C88.464 64.4533 88.5653 63.8773 88.768 63.344C88.9707 62.8106 89.2587 62.352 89.632 61.968C90.0053 61.5733 90.448 61.264 90.96 61.04C91.4827 60.816 92.0587 60.704 92.688 60.704C93.392 60.704 94.0053 60.8426 94.528 61.12C95.0507 61.3866 95.4773 61.7493 95.808 62.208C96.1493 62.6666 96.3947 63.1893 96.544 63.776C96.6933 64.3626 96.7467 64.976 96.704 65.616H90.736ZM99.8115 66.512C99.8115 66.7573 99.8595 66.9706 99.9555 67.152C100.062 67.3226 100.196 67.4666 100.356 67.584C100.516 67.6906 100.697 67.7706 100.9 67.824C101.113 67.8773 101.332 67.904 101.556 67.904C101.716 67.904 101.881 67.888 102.052 67.856C102.233 67.8133 102.393 67.7546 102.532 67.68C102.681 67.5946 102.804 67.488 102.9 67.36C102.996 67.2213 103.044 67.0506 103.044 66.848C103.044 66.5066 102.814 66.2506 102.356 66.08C101.908 65.9093 101.278 65.7386 100.468 65.568C100.137 65.4933 99.8115 65.408 99.4915 65.312C99.1822 65.2053 98.9048 65.072 98.6595 64.912C98.4142 64.7413 98.2168 64.5333 98.0675 64.288C97.9182 64.032 97.8435 63.7226 97.8435 63.36C97.8435 62.8266 97.9448 62.3893 98.1475 62.048C98.3608 61.7066 98.6382 61.44 98.9795 61.248C99.3208 61.0453 99.7048 60.9066 100.132 60.832C100.558 60.7466 100.996 60.704 101.444 60.704C101.892 60.704 102.324 60.7466 102.74 60.832C103.166 60.9173 103.545 61.0613 103.876 61.264C104.206 61.4666 104.478 61.7386 104.692 62.08C104.916 62.4106 105.049 62.832 105.092 63.344H102.932C102.9 62.9066 102.734 62.6133 102.436 62.464C102.137 62.304 101.785 62.224 101.38 62.224C101.252 62.224 101.113 62.2346 100.964 62.256C100.814 62.2666 100.676 62.2986 100.548 62.352C100.43 62.4053 100.329 62.4853 100.244 62.592C100.158 62.688 100.116 62.8213 100.116 62.992C100.116 63.1946 100.19 63.36 100.34 63.488C100.489 63.616 100.681 63.7226 100.916 63.808C101.161 63.8826 101.438 63.952 101.748 64.016C102.057 64.08 102.372 64.1493 102.692 64.224C103.022 64.2986 103.342 64.3893 103.652 64.496C103.972 64.6026 104.254 64.7466 104.5 64.928C104.745 65.0986 104.942 65.3173 105.092 65.584C105.241 65.84 105.316 66.16 105.316 66.544C105.316 67.088 105.204 67.5466 104.98 67.92C104.766 68.2826 104.484 68.576 104.132 68.8C103.78 69.024 103.374 69.1786 102.916 69.264C102.468 69.36 102.009 69.408 101.54 69.408C101.06 69.408 100.59 69.36 100.132 69.264C99.6728 69.168 99.2622 69.008 98.8995 68.784C98.5475 68.56 98.2542 68.2666 98.0195 67.904C97.7955 67.5306 97.6728 67.0666 97.6515 66.512H99.8115Z" fill="white"/>
</g>
<defs>
<clipPath id="clip0_983_12494">
<rect y="0.199951" width="148" height="97" rx="12" fill="white"/>
</clipPath>
</defs>
</svg>