<svg xmlns="http://www.w3.org/2000/svg" width="148" height="98" viewBox="0 0 148 98" fill="none">
<g clip-path="url(#clip0_3_8300)">
<rect y="0.199219" width="148" height="97" rx="12" fill="#333333"/>
<path d="M78.7273 66.1085V99.6539C78.7273 100.642 78.3346 101.591 77.6356 102.29C76.9366 102.989 75.9885 103.381 75 103.381C74.0115 103.381 73.0634 102.989 72.3644 102.29C71.6654 101.591 71.2727 100.642 71.2727 99.6539V66.1085C71.2727 65.12 71.6654 64.1719 72.3644 63.4729C73.0634 62.7739 74.0115 62.3812 75 62.3812C75.9885 62.3812 76.9366 62.7739 77.6356 63.4729C78.3346 64.1719 78.7273 65.12 78.7273 66.1085ZM112.273 36.2903H83.9967L103.728 16.5637C104.427 15.8643 104.82 14.9158 104.82 13.9267C104.82 12.9376 104.427 11.989 103.728 11.2896C103.029 10.5902 102.08 10.1973 101.091 10.1973C100.102 10.1973 99.1533 10.5902 98.4539 11.2896L78.7273 31.0209V2.74485C78.7273 1.75632 78.3346 0.80827 77.6356 0.109271C76.9366 -0.589728 75.9885 -0.982422 75 -0.982422C74.0115 -0.982422 73.0634 -0.589728 72.3644 0.109271C71.6654 0.80827 71.2727 1.75632 71.2727 2.74485V31.0209L51.5461 11.2896C50.8468 10.5902 49.8982 10.1973 48.9091 10.1973C47.92 10.1973 46.9714 10.5902 46.272 11.2896C45.5727 11.989 45.1797 12.9376 45.1797 13.9267C45.1797 14.9158 45.5727 15.8643 46.272 16.5637L66.0033 36.2903H37.7273C36.7387 36.2903 35.7907 36.683 35.0917 37.382C34.3927 38.081 34 39.029 34 40.0176C34 41.0061 34.3927 41.9542 35.0917 42.6532C35.7907 43.3522 36.7387 43.7449 37.7273 43.7449H66.0033L46.272 63.4714C45.5727 64.1708 45.1797 65.1194 45.1797 66.1085C45.1797 67.0976 45.5727 68.0462 46.272 68.7455C46.9714 69.4449 47.92 69.8378 48.9091 69.8378C49.8982 69.8378 50.8468 69.4449 51.5461 68.7455L75 45.287L98.4539 68.7455C98.8002 69.0918 99.2113 69.3665 99.6637 69.554C100.116 69.7414 100.601 69.8378 101.091 69.8378C101.581 69.8378 102.066 69.7414 102.518 69.554C102.971 69.3665 103.382 69.0918 103.728 68.7455C104.074 68.3992 104.349 67.9881 104.536 67.5356C104.724 67.0832 104.82 66.5982 104.82 66.1085C104.82 65.6187 104.724 65.1338 104.536 64.6813C104.349 64.2289 104.074 63.8177 103.728 63.4714L83.9967 43.7449H112.273C113.261 43.7449 114.209 43.3522 114.908 42.6532C115.607 41.9542 116 41.0061 116 40.0176C116 39.029 115.607 38.081 114.908 37.382C114.209 36.683 113.261 36.2903 112.273 36.2903Z" fill="#5A5A5A"/>
<path d="M74.5 25.4492C72.5716 25.4492 70.6866 26.021 69.0832 27.0924C67.4798 28.1637 66.2301 29.6865 65.4922 31.4681C64.7542 33.2496 64.5611 35.21 64.9373 37.1013C65.3136 38.9927 66.2422 40.7299 67.6057 42.0935C68.9693 43.4571 70.7066 44.3857 72.5979 44.7619C74.4892 45.1381 76.4496 44.945 78.2312 44.207C80.0127 43.4691 81.5355 42.2194 82.6068 40.616C83.6782 39.0126 84.25 37.1276 84.25 35.1992C84.2473 32.6142 83.2192 30.1358 81.3913 28.3079C79.5634 26.4801 77.085 25.4519 74.5 25.4492ZM78.3016 35.8161L73.4266 39.1911C73.314 39.2689 73.1823 39.3145 73.0458 39.3228C72.9092 39.3312 72.7729 39.302 72.6517 39.2384C72.5306 39.1749 72.4291 39.0794 72.3583 38.9624C72.2874 38.8453 72.25 38.711 72.25 38.5742V31.8242C72.25 31.6874 72.2874 31.5532 72.3583 31.4361C72.4291 31.319 72.5306 31.2235 72.6517 31.16C72.7729 31.0965 72.9092 31.0673 73.0458 31.0756C73.1823 31.084 73.314 31.1295 73.4266 31.2073L78.3016 34.5823C78.4013 34.6513 78.4829 34.7435 78.5392 34.851C78.5956 34.9584 78.625 35.0779 78.625 35.1992C78.625 35.3205 78.5956 35.44 78.5392 35.5475C78.4829 35.6549 78.4013 35.7471 78.3016 35.8161Z" fill="white"/>
<path d="M46.0348 65.4072C46.0348 65.7912 46.1041 66.1166 46.2428 66.3832C46.3814 66.6499 46.5628 66.8686 46.7868 67.0392C47.0214 67.1992 47.2934 67.3219 47.6028 67.4072C47.9121 67.4819 48.2321 67.5192 48.5628 67.5192C48.7868 67.5192 49.0268 67.5032 49.2828 67.4712C49.5388 67.4286 49.7788 67.3539 50.0028 67.2472C50.2268 67.1406 50.4134 66.9966 50.5628 66.8152C50.7121 66.6232 50.7868 66.3832 50.7868 66.0952C50.7868 65.7859 50.6854 65.5352 50.4828 65.3432C50.2908 65.1512 50.0348 64.9912 49.7148 64.8632C49.3948 64.7352 49.0321 64.6232 48.6268 64.5272C48.2214 64.4312 47.8108 64.3246 47.3948 64.2072C46.9681 64.1006 46.5521 63.9726 46.1468 63.8232C45.7414 63.6632 45.3788 63.4606 45.0588 63.2152C44.7388 62.9699 44.4774 62.6659 44.2747 62.3032C44.0828 61.9299 43.9868 61.4819 43.9868 60.9592C43.9868 60.3726 44.1094 59.8659 44.3548 59.4392C44.6108 59.0019 44.9414 58.6392 45.3468 58.3512C45.7521 58.0632 46.2108 57.8499 46.7228 57.7112C47.2348 57.5726 47.7468 57.5032 48.2588 57.5032C48.8561 57.5032 49.4268 57.5726 49.9708 57.7112C50.5254 57.8392 51.0161 58.0526 51.4427 58.3512C51.8694 58.6499 52.2054 59.0339 52.4508 59.5032C52.7068 59.9619 52.8348 60.5219 52.8348 61.1832H50.4028C50.3814 60.8419 50.3068 60.5592 50.1788 60.3352C50.0614 60.1112 49.9014 59.9352 49.6988 59.8072C49.4961 59.6792 49.2614 59.5886 48.9948 59.5352C48.7388 59.4819 48.4561 59.4552 48.1468 59.4552C47.9441 59.4552 47.7414 59.4766 47.5388 59.5192C47.3361 59.5619 47.1494 59.6366 46.9788 59.7432C46.8188 59.8499 46.6854 59.9832 46.5788 60.1432C46.4721 60.3032 46.4188 60.5059 46.4188 60.7512C46.4188 60.9752 46.4614 61.1566 46.5468 61.2952C46.6321 61.4339 46.7974 61.5619 47.0428 61.6792C47.2988 61.7966 47.6454 61.9139 48.0828 62.0312C48.5308 62.1486 49.1121 62.2979 49.8268 62.4792C50.0401 62.5219 50.3334 62.6019 50.7068 62.7192C51.0908 62.8259 51.4694 63.0019 51.8428 63.2472C52.2161 63.4926 52.5361 63.8232 52.8028 64.2392C53.0801 64.6446 53.2188 65.1672 53.2188 65.8072C53.2188 66.3299 53.1174 66.8152 52.9148 67.2632C52.7121 67.7112 52.4081 68.1006 52.0028 68.4312C51.6081 68.7512 51.1121 69.0019 50.5148 69.1832C49.9281 69.3646 49.2454 69.4552 48.4668 69.4552C47.8374 69.4552 47.2241 69.3752 46.6268 69.2152C46.0401 69.0659 45.5174 68.8259 45.0588 68.4952C44.6108 68.1646 44.2534 67.7432 43.9868 67.2312C43.7201 66.7192 43.5921 66.1112 43.6028 65.4072H46.0348ZM56.4894 65.0712C56.4894 65.4019 56.5214 65.7272 56.5854 66.0472C56.6494 66.3566 56.756 66.6392 56.9054 66.8952C57.0654 67.1406 57.2734 67.3379 57.5294 67.4872C57.7854 67.6366 58.1054 67.7112 58.4894 67.7112C58.8734 67.7112 59.1934 67.6366 59.4494 67.4872C59.716 67.3379 59.924 67.1406 60.0734 66.8952C60.2334 66.6392 60.3454 66.3566 60.4094 66.0472C60.4734 65.7272 60.5054 65.4019 60.5054 65.0712C60.5054 64.7406 60.4734 64.4152 60.4094 64.0952C60.3454 63.7752 60.2334 63.4926 60.0734 63.2472C59.924 63.0019 59.716 62.8046 59.4494 62.6552C59.1934 62.4952 58.8734 62.4152 58.4894 62.4152C58.1054 62.4152 57.7854 62.4952 57.5294 62.6552C57.2734 62.8046 57.0654 63.0019 56.9054 63.2472C56.756 63.4926 56.6494 63.7752 56.5854 64.0952C56.5214 64.4152 56.4894 64.7406 56.4894 65.0712ZM54.2174 65.0712C54.2174 64.4099 54.3187 63.8126 54.5214 63.2792C54.724 62.7352 55.012 62.2766 55.3854 61.9032C55.7587 61.5192 56.2067 61.2259 56.7294 61.0232C57.252 60.8099 57.8387 60.7032 58.4894 60.7032C59.14 60.7032 59.7267 60.8099 60.2494 61.0232C60.7827 61.2259 61.236 61.5192 61.6094 61.9032C61.9827 62.2766 62.2707 62.7352 62.4734 63.2792C62.676 63.8126 62.7774 64.4099 62.7774 65.0712C62.7774 65.7326 62.676 66.3299 62.4734 66.8632C62.2707 67.3966 61.9827 67.8552 61.6094 68.2392C61.236 68.6126 60.7827 68.9006 60.2494 69.1032C59.7267 69.3059 59.14 69.4072 58.4894 69.4072C57.8387 69.4072 57.252 69.3059 56.7294 69.1032C56.2067 68.9006 55.7587 68.6126 55.3854 68.2392C55.012 67.8552 54.724 67.3966 54.5214 66.8632C54.3187 66.3299 54.2174 65.7326 54.2174 65.0712ZM72.0146 69.1992H69.8546V68.0472H69.8066C69.5186 68.5272 69.1453 68.8739 68.6866 69.0872C68.228 69.3006 67.7586 69.4072 67.2786 69.4072C66.6706 69.4072 66.1693 69.3272 65.7746 69.1672C65.3906 69.0072 65.0866 68.7832 64.8626 68.4952C64.6386 68.1966 64.4786 67.8392 64.3826 67.4232C64.2973 66.9966 64.2546 66.5272 64.2546 66.0152V60.9272H66.5266V65.5992C66.5266 66.2819 66.6333 66.7939 66.8466 67.1352C67.06 67.4659 67.4386 67.6312 67.9826 67.6312C68.6013 67.6312 69.0493 67.4499 69.3266 67.0872C69.604 66.7139 69.7426 66.1059 69.7426 65.2632V60.9272H72.0146V69.1992ZM73.739 60.9272H75.899V62.4632H75.931C76.0377 62.2072 76.1817 61.9726 76.363 61.7592C76.5443 61.5352 76.7523 61.3486 76.987 61.1992C77.2217 61.0392 77.4723 60.9166 77.739 60.8312C78.0057 60.7459 78.283 60.7032 78.571 60.7032C78.7203 60.7032 78.8857 60.7299 79.067 60.7832V62.8952C78.9603 62.8739 78.8323 62.8579 78.683 62.8472C78.5337 62.8259 78.3897 62.8152 78.251 62.8152C77.835 62.8152 77.483 62.8846 77.195 63.0232C76.907 63.1619 76.6723 63.3539 76.491 63.5992C76.3203 63.8339 76.1977 64.1112 76.123 64.4312C76.0483 64.7512 76.011 65.0979 76.011 65.4712V69.1992H73.739V60.9272ZM85.3085 63.8392C85.1592 62.8899 84.5992 62.4152 83.6285 62.4152C83.2658 62.4152 82.9618 62.5006 82.7165 62.6712C82.4712 62.8312 82.2685 63.0446 82.1085 63.3112C81.9592 63.5672 81.8525 63.8552 81.7885 64.1752C81.7245 64.4846 81.6925 64.7939 81.6925 65.1032C81.6925 65.4019 81.7245 65.7059 81.7885 66.0152C81.8525 66.3246 81.9538 66.6072 82.0925 66.8632C82.2418 67.1086 82.4392 67.3112 82.6845 67.4712C82.9298 67.6312 83.2285 67.7112 83.5805 67.7112C84.1245 67.7112 84.5405 67.5619 84.8285 67.2632C85.1272 66.9539 85.3138 66.5432 85.3885 66.0312H87.5805C87.4312 67.1299 87.0045 67.9672 86.3005 68.5432C85.5965 69.1192 84.6952 69.4072 83.5965 69.4072C82.9778 69.4072 82.4072 69.3059 81.8845 69.1032C81.3725 68.8899 80.9352 68.5966 80.5725 68.2232C80.2098 67.8499 79.9272 67.4072 79.7245 66.8952C79.5218 66.3726 79.4205 65.8019 79.4205 65.1832C79.4205 64.5432 79.5112 63.9512 79.6925 63.4072C79.8845 62.8526 80.1618 62.3779 80.5245 61.9832C80.8872 61.5779 81.3298 61.2632 81.8525 61.0392C82.3752 60.8152 82.9725 60.7032 83.6445 60.7032C84.1352 60.7032 84.6045 60.7672 85.0525 60.8952C85.5112 61.0232 85.9165 61.2206 86.2685 61.4872C86.6312 61.7432 86.9245 62.0686 87.1485 62.4632C87.3725 62.8472 87.5005 63.3059 87.5325 63.8392H85.3085ZM94.432 64.1752C94.3253 63.5992 94.1333 63.1619 93.856 62.8632C93.5893 62.5646 93.1787 62.4152 92.624 62.4152C92.2613 62.4152 91.9573 62.4792 91.712 62.6072C91.4773 62.7246 91.2853 62.8739 91.136 63.0552C90.9973 63.2366 90.896 63.4286 90.832 63.6312C90.7787 63.8339 90.7467 64.0152 90.736 64.1752H94.432ZM90.736 65.6152C90.768 66.3512 90.9547 66.8846 91.296 67.2152C91.6373 67.5459 92.128 67.7112 92.768 67.7112C93.2267 67.7112 93.6213 67.5992 93.952 67.3752C94.2827 67.1406 94.4853 66.8952 94.56 66.6392H96.56C96.24 67.6312 95.7493 68.3406 95.088 68.7672C94.4267 69.1939 93.6267 69.4072 92.688 69.4072C92.0373 69.4072 91.4507 69.3059 90.928 69.1032C90.4053 68.8899 89.9627 68.5912 89.6 68.2072C89.2373 67.8232 88.9547 67.3646 88.752 66.8312C88.56 66.2979 88.464 65.7112 88.464 65.0712C88.464 64.4526 88.5653 63.8766 88.768 63.3432C88.9707 62.8099 89.2587 62.3512 89.632 61.9672C90.0053 61.5726 90.448 61.2632 90.96 61.0392C91.4827 60.8152 92.0587 60.7032 92.688 60.7032C93.392 60.7032 94.0053 60.8419 94.528 61.1192C95.0507 61.3859 95.4773 61.7486 95.808 62.2072C96.1493 62.6659 96.3947 63.1886 96.544 63.7752C96.6933 64.3619 96.7467 64.9752 96.704 65.6152H90.736ZM99.8115 66.5112C99.8115 66.7566 99.8595 66.9699 99.9555 67.1512C100.062 67.3219 100.196 67.4659 100.356 67.5832C100.516 67.6899 100.697 67.7699 100.9 67.8232C101.113 67.8766 101.332 67.9032 101.556 67.9032C101.716 67.9032 101.881 67.8872 102.052 67.8552C102.233 67.8126 102.393 67.7539 102.532 67.6792C102.681 67.5939 102.804 67.4872 102.9 67.3592C102.996 67.2206 103.044 67.0499 103.044 66.8472C103.044 66.5059 102.814 66.2499 102.356 66.0792C101.908 65.9086 101.278 65.7379 100.468 65.5672C100.137 65.4926 99.8115 65.4072 99.4915 65.3112C99.1822 65.2046 98.9048 65.0712 98.6595 64.9112C98.4142 64.7406 98.2168 64.5326 98.0675 64.2872C97.9182 64.0312 97.8435 63.7219 97.8435 63.3592C97.8435 62.8259 97.9448 62.3886 98.1475 62.0472C98.3608 61.7059 98.6382 61.4392 98.9795 61.2472C99.3208 61.0446 99.7048 60.9059 100.132 60.8312C100.558 60.7459 100.996 60.7032 101.444 60.7032C101.892 60.7032 102.324 60.7459 102.74 60.8312C103.166 60.9166 103.545 61.0606 103.876 61.2632C104.206 61.4659 104.478 61.7379 104.692 62.0792C104.916 62.4099 105.049 62.8312 105.092 63.3432H102.932C102.9 62.9059 102.734 62.6126 102.436 62.4632C102.137 62.3032 101.785 62.2232 101.38 62.2232C101.252 62.2232 101.113 62.2339 100.964 62.2552C100.814 62.2659 100.676 62.2979 100.548 62.3512C100.43 62.4046 100.329 62.4846 100.244 62.5912C100.158 62.6872 100.116 62.8206 100.116 62.9912C100.116 63.1939 100.19 63.3592 100.34 63.4872C100.489 63.6152 100.681 63.7219 100.916 63.8072C101.161 63.8819 101.438 63.9512 101.748 64.0152C102.057 64.0792 102.372 64.1486 102.692 64.2232C103.022 64.2979 103.342 64.3886 103.652 64.4952C103.972 64.6019 104.254 64.7459 104.5 64.9272C104.745 65.0979 104.942 65.3166 105.092 65.5832C105.241 65.8392 105.316 66.1592 105.316 66.5432C105.316 67.0872 105.204 67.5459 104.98 67.9192C104.766 68.2819 104.484 68.5752 104.132 68.7992C103.78 69.0232 103.374 69.1779 102.916 69.2632C102.468 69.3592 102.009 69.4072 101.54 69.4072C101.06 69.4072 100.59 69.3592 100.132 69.2632C99.6728 69.1672 99.2622 69.0072 98.8995 68.7832C98.5475 68.5592 98.2542 68.2659 98.0195 67.9032C97.7955 67.5299 97.6728 67.0659 97.6515 66.5112H99.8115Z" fill="white"/>
</g>
<defs>
<clipPath id="clip0_3_8300">
<rect y="0.199219" width="148" height="97" rx="12" fill="white"/>
</clipPath>
</defs>
</svg>