<svg xmlns="http://www.w3.org/2000/svg" width="40" height="40" viewBox="0 0 40 40" fill="none">
<rect width="40" height="40" rx="8" fill="#F0F0F0"/>
<path d="M27.5968 23.6515C27.7553 23.8429 27.8314 24.0894 27.8082 24.3369C27.7851 24.5843 27.6646 24.8124 27.4734 24.9711C26.0538 26.1492 24.7702 26.5625 23.6054 26.5625C22.0617 26.5625 20.7257 25.8367 19.5523 25.2C17.5945 24.1359 16.0476 23.2961 13.7234 25.2234C13.5319 25.3821 13.2853 25.4583 13.0377 25.4352C12.79 25.412 12.5618 25.2914 12.4031 25.1C12.2443 24.9085 12.1682 24.6619 12.1913 24.4143C12.2145 24.1667 12.335 23.9384 12.5265 23.7797C15.8273 21.0453 18.3859 22.4336 20.4476 23.5515C22.4054 24.6148 23.9523 25.4555 26.2765 23.5281C26.3713 23.4495 26.4806 23.3903 26.5983 23.354C26.716 23.3177 26.8396 23.3049 26.9622 23.3163C27.0848 23.3278 27.204 23.3633 27.3129 23.4208C27.4218 23.4783 27.5182 23.5567 27.5968 23.6515ZM26.2765 19.1523C23.9523 21.0797 22.4054 20.239 20.4476 19.1758C18.389 18.0586 15.8273 16.6672 12.5265 19.4039C12.335 19.5626 12.2145 19.7909 12.1913 20.0385C12.1799 20.1611 12.1927 20.2847 12.229 20.4024C12.2653 20.5201 12.3245 20.6294 12.4031 20.7242C12.4817 20.819 12.5781 20.8974 12.687 20.9549C12.7959 21.0124 12.9151 21.0479 13.0377 21.0594C13.2853 21.0825 13.5319 21.0064 13.7234 20.8476C16.0476 18.9203 17.5945 19.7601 19.5523 20.8242C20.7242 21.4609 22.0617 22.1867 23.6054 22.1867C24.7702 22.1867 26.0538 21.7734 27.4734 20.5961C27.6648 20.4374 27.7854 20.2091 27.8085 19.9615C27.8317 19.7139 27.7555 19.4672 27.5968 19.2758C27.4381 19.0843 27.2098 18.9638 26.9622 18.9406C26.7146 18.9175 26.468 18.9936 26.2765 19.1523ZM13.7234 16.4719C16.0476 14.5445 17.5945 15.3844 19.5523 16.4484C20.7242 17.0851 22.0617 17.8109 23.6054 17.8109C24.7702 17.8109 26.0538 17.3976 27.4734 16.2203C27.6648 16.0616 27.7854 15.8333 27.8085 15.5857C27.8317 15.3381 27.7555 15.0914 27.5968 14.9C27.4381 14.7085 27.2098 14.588 26.9622 14.5648C26.7146 14.5417 26.468 14.6178 26.2765 14.7766C23.9523 16.7039 22.4054 15.8641 20.4476 14.8C18.389 13.6828 15.8273 12.2914 12.5265 15.0289C12.4294 15.1067 12.3488 15.2031 12.2894 15.3124C12.23 15.4217 12.1929 15.5418 12.1803 15.6655C12.1678 15.7893 12.18 15.9144 12.2162 16.0334C12.2525 16.1524 12.312 16.263 12.3915 16.3588C12.4709 16.4545 12.5686 16.5335 12.6788 16.5911C12.7891 16.6488 12.9097 16.6839 13.0337 16.6944C13.1577 16.7049 13.2825 16.6907 13.4009 16.6525C13.5193 16.6143 13.6289 16.5529 13.7234 16.4719Z" fill="#898989"/>
</svg>