<svg xmlns="http://www.w3.org/2000/svg" width="183" height="50" viewBox="0 0 183 50" fill="none">
<rect x="0.875" width="50" height="50" rx="8" fill="#E9EBFC"/>
<path d="M30.5624 12.1094C28.1684 12.1112 25.8221 12.779 23.7859 14.0381C21.7497 15.2971 20.104 17.0978 19.0327 19.2388C17.7582 19.0529 16.4591 19.1316 15.2164 19.47C13.9737 19.8085 12.814 20.3993 11.8098 21.2057C10.8055 22.0121 9.97821 23.0168 9.37944 24.1571C8.78066 25.2974 8.42326 26.5489 8.32954 27.8334C8.23582 29.118 8.40779 30.4081 8.83471 31.6232C9.26164 32.8383 9.93436 33.9525 10.8109 34.8961C11.6875 35.8398 12.7491 36.5927 13.9295 37.1079C15.1099 37.6231 16.3839 37.8895 17.6718 37.8906H30.5624C33.9812 37.8906 37.26 36.5325 39.6775 34.115C42.095 31.6976 43.4531 28.4188 43.4531 25C43.4531 21.5812 42.095 18.3024 39.6775 15.885C37.26 13.4675 33.9812 12.1094 30.5624 12.1094ZM30.5624 35.5469H17.6718C15.807 35.5469 14.0186 34.8061 12.7 33.4875C11.3814 32.1689 10.6406 30.3804 10.6406 28.5156C10.6406 26.6508 11.3814 24.8624 12.7 23.5438C14.0186 22.2252 15.807 21.4844 17.6718 21.4844C17.8329 21.4844 17.9941 21.4844 18.1537 21.5005C17.8333 22.6393 17.6711 23.8169 17.6718 25C17.6718 25.3108 17.7953 25.6089 18.015 25.8286C18.2348 26.0484 18.5329 26.1719 18.8437 26.1719C19.1545 26.1719 19.4526 26.0484 19.6723 25.8286C19.8921 25.6089 20.0156 25.3108 20.0156 25C20.0156 22.914 20.6341 20.8749 21.793 19.1405C22.9519 17.406 24.5991 16.0542 26.5263 15.256C28.4535 14.4577 30.5741 14.2488 32.62 14.6558C34.6659 15.0627 36.5452 16.0672 38.0202 17.5422C39.4952 19.0172 40.4997 20.8965 40.9067 22.9424C41.3136 24.9883 41.1048 27.1089 40.3065 29.0361C39.5082 30.9633 38.1564 32.6105 36.422 33.7694C34.6875 34.9283 32.6484 35.5469 30.5624 35.5469Z" fill="#203FDD"/>
<rect x="132.125" width="50" height="50" rx="8" fill="#E9EBFC"/>
<path d="M168.844 26.1719H145.406C144.785 26.1719 144.189 26.4188 143.749 26.8583C143.309 27.2979 143.062 27.894 143.062 28.5156V35.5469C143.062 36.1685 143.309 36.7646 143.749 37.2042C144.189 37.6437 144.785 37.8906 145.406 37.8906H168.844C169.465 37.8906 170.061 37.6437 170.501 37.2042C170.941 36.7646 171.188 36.1685 171.188 35.5469V28.5156C171.188 27.894 170.941 27.2979 170.501 26.8583C170.061 26.4188 169.465 26.1719 168.844 26.1719ZM168.844 35.5469H145.406V28.5156H168.844V35.5469ZM168.844 12.1094H145.406C144.785 12.1094 144.189 12.3563 143.749 12.7958C143.309 13.2354 143.062 13.8315 143.062 14.4531V21.4844C143.062 22.106 143.309 22.7021 143.749 23.1417C144.189 23.5812 144.785 23.8281 145.406 23.8281H168.844C169.465 23.8281 170.061 23.5812 170.501 23.1417C170.941 22.7021 171.188 22.106 171.188 21.4844V14.4531C171.188 13.8315 170.941 13.2354 170.501 12.7958C170.061 12.3563 169.465 12.1094 168.844 12.1094ZM168.844 21.4844H145.406V14.4531H168.844V21.4844ZM166.5 17.9688C166.5 18.3164 166.397 18.6563 166.204 18.9453C166.011 19.2344 165.736 19.4597 165.415 19.5928C165.094 19.7258 164.74 19.7606 164.399 19.6928C164.058 19.625 163.745 19.4575 163.499 19.2117C163.253 18.9659 163.086 18.6527 163.018 18.3117C162.95 17.9707 162.985 17.6173 163.118 17.2961C163.251 16.9749 163.477 16.7003 163.766 16.5072C164.055 16.314 164.395 16.2109 164.742 16.2109C165.208 16.2109 165.655 16.3961 165.985 16.7258C166.315 17.0554 166.5 17.5025 166.5 17.9688ZM166.5 32.0312C166.5 32.3789 166.397 32.7188 166.204 33.0078C166.011 33.2969 165.736 33.5222 165.415 33.6553C165.094 33.7883 164.74 33.8231 164.399 33.7553C164.058 33.6875 163.745 33.52 163.499 33.2742C163.253 33.0284 163.086 32.7152 163.018 32.3742C162.95 32.0332 162.985 31.6798 163.118 31.3586C163.251 31.0374 163.477 30.7628 163.766 30.5697C164.055 30.3765 164.395 30.2734 164.742 30.2734C165.208 30.2734 165.655 30.4586 165.985 30.7883C166.315 31.1179 166.5 31.565 166.5 32.0312Z" fill="#203FDD"/>
<line x1="50.875" y1="23.4375" x2="132.125" y2="23.4375" stroke="#F0F0F0" stroke-width="3.125"/>
<line x1="50.875" y1="23.4375" x2="94.625" y2="23.4375" stroke="#203FDD" stroke-width="3.125"/>
</svg>